<?xml version="1.0"?>
<svg xmlns:rdf="http://www.w3.org/1999/02/22-rdf-syntax-ns#" xmlns="http://www.w3.org/2000/svg" xmlns:cc="http://creativecommons.org/ns#" xmlns:xlink="http://www.w3.org/1999/xlink" xmlns:dc="http://purl.org/dc/elements/1.1/" xmlns:svg="http://www.w3.org/2000/svg" id="svg2" viewBox="0 0 684 864" version="1.1">
  <defs id="defs6">
    <linearGradient id="linearGradient4129">
      <stop id="stop4131" stop-color="#ddd" offset="0"/>
      <stop id="stop4133" stop-color="#fff" offset=".33333"/>
      <stop id="stop4135" stop-color="#fff" offset=".66667"/>
      <stop id="stop4137" stop-color="#d4d4d4" offset="1"/>
    </linearGradient>
    <linearGradient id="linearGradient4113">
      <stop id="stop4115" stop-color="#d9d9d9" offset="0"/>
      <stop id="stop4121" stop-color="#c0c0c0" offset=".33333"/>
      <stop id="stop4123" stop-color="#949494" offset=".66667"/>
      <stop id="stop4117" stop-color="#d4d4d4" offset="1"/>
    </linearGradient>
    <linearGradient id="linearGradient11227" x1="-313.48" gradientUnits="userSpaceOnUse" x2="-305.95" y1="-1623.7" y2="-1651.8">
      <stop id="stop3814" offset="0"/>
      <stop id="stop3820" offset=".8125"/>
      <stop id="stop3816" stop-color="#666" offset="1"/>
    </linearGradient>
    <linearGradient id="linearGradient11229" x1="-348" gradientUnits="userSpaceOnUse" x2="-310" y1="-1650.5" y2="-1650.5">
      <stop id="stop3802" stop-color="#8a8a8a" offset="0"/>
      <stop id="stop3810" stop-color="#d0d0d0" offset=".067708"/>
      <stop id="stop3808" stop-color="#737373" offset=".20367"/>
      <stop id="stop3804" stop-color="#c9c9c9" offset="1"/>
    </linearGradient>
    <linearGradient id="linearGradient11231" x1="-348" gradientUnits="userSpaceOnUse" x2="-311" y1="-1650.5" y2="-1650.5">
      <stop id="stop3788" offset="0"/>
      <stop id="stop3794" offset=".0625"/>
      <stop id="stop3796" stop-color="#242424" offset=".0625"/>
      <stop id="stop3798" stop-color="#919191" offset=".091797"/>
      <stop id="stop3790" offset="1"/>
    </linearGradient>
    <linearGradient id="linearGradient11253" x1="-348" gradientUnits="userSpaceOnUse" x2="-310" y1="-1650.5" y2="-1650.5">
      <stop id="stop4153" stop-color="#8a8a8a" offset="0"/>
      <stop id="stop4155" stop-color="#d0d0d0" offset=".078947"/>
      <stop id="stop4157" stop-color="#737373" offset=".21053"/>
      <stop id="stop4159" stop-color="#c9c9c9" offset="1"/>
    </linearGradient>
    <linearGradient id="linearGradient11255" x1="-348" gradientUnits="userSpaceOnUse" x2="-311" y1="-1650.5" y2="-1650.5">
      <stop id="stop4141" offset="0"/>
      <stop id="stop4143" offset=".054054"/>
      <stop id="stop4145" stop-color="#242424" offset=".067878"/>
      <stop id="stop4147" stop-color="#919191" offset=".081081"/>
      <stop id="stop4149" offset="1"/>
    </linearGradient>
    <linearGradient id="linearGradient13261" x1="-284" gradientUnits="userSpaceOnUse" y1="-1627.5" gradientTransform="matrix(1 0 0 6.9794 348 11829)" x2="-282" y2="-1627.5">
      <stop id="stop4237" stop-color="#d9d9d9" offset="0"/>
      <stop id="stop4243" stop-color="#9e9e9e" offset=".5"/>
      <stop id="stop4239" stop-color="#838383" offset="1"/>
    </linearGradient>
    <linearGradient id="linearGradient13265" x1="-344" xlink:href="#linearGradient4113" gradientUnits="userSpaceOnUse" y1="-1571" gradientTransform="translate(348 2390)" x2="-344" y2="-1568"/>
    <linearGradient id="linearGradient13268" x1="-344" xlink:href="#linearGradient4113" gradientUnits="userSpaceOnUse" y1="-1571" gradientTransform="translate(348,2414)" x2="-344" y2="-1568"/>
    <linearGradient id="linearGradient13271" x1="-344" xlink:href="#linearGradient4113" gradientUnits="userSpaceOnUse" y1="-1571" gradientTransform="translate(348,2432)" x2="-344" y2="-1568"/>
    <linearGradient id="linearGradient13274" x1="-344" xlink:href="#linearGradient4113" gradientUnits="userSpaceOnUse" y1="-1571" gradientTransform="translate(348,2450)" x2="-344" y2="-1568"/>
    <linearGradient id="linearGradient13277" x1="-344" xlink:href="#linearGradient4113" gradientUnits="userSpaceOnUse" y1="-1571" gradientTransform="translate(348,2474)" x2="-344" y2="-1568"/>
    <linearGradient id="linearGradient13280" x1="-344" xlink:href="#linearGradient4113" gradientUnits="userSpaceOnUse" y1="-1571" gradientTransform="translate(348,2492)" x2="-344" y2="-1568"/>
    <linearGradient id="linearGradient13283" x1="-344" xlink:href="#linearGradient4129" gradientUnits="userSpaceOnUse" y1="-1571" gradientTransform="translate(348,2370)" x2="-344" y2="-1568"/>
    <linearGradient id="linearGradient13286" x1="-344" xlink:href="#linearGradient4129" gradientUnits="userSpaceOnUse" y1="-1571" gradientTransform="translate(348,2394)" x2="-344" y2="-1568"/>
    <linearGradient id="linearGradient13289" x1="-344" xlink:href="#linearGradient4129" gradientUnits="userSpaceOnUse" y1="-1571" gradientTransform="translate(348,2418)" x2="-344" y2="-1568"/>
    <linearGradient id="linearGradient13292" x1="-344" xlink:href="#linearGradient4129" gradientUnits="userSpaceOnUse" y1="-1571" gradientTransform="translate(348,2436)" x2="-344" y2="-1568"/>
    <linearGradient id="linearGradient13295" x1="-344" xlink:href="#linearGradient4129" gradientUnits="userSpaceOnUse" y1="-1571" gradientTransform="translate(348,2454)" x2="-344" y2="-1568"/>
    <linearGradient id="linearGradient13299" x1="-344" xlink:href="#linearGradient4129" gradientUnits="userSpaceOnUse" y1="-1571" gradientTransform="translate(348,2478)" x2="-344" y2="-1568"/>
    <linearGradient id="linearGradient13966" x1="-344" xlink:href="#linearGradient4129" gradientUnits="userSpaceOnUse" y1="-1571" gradientTransform="translate(348,2352)" x2="-344" y2="-1568"/>
    <linearGradient id="linearGradient13972" x1="-344" xlink:href="#linearGradient4113" gradientUnits="userSpaceOnUse" y1="-1571" gradientTransform="translate(348,2366)" x2="-344" y2="-1568"/>
    <linearGradient id="linearGradient16106" y2="432" gradientUnits="userSpaceOnUse" y1="432" x2="789" x1="66">
      <stop id="stop16102" stop-color="#afa99c" offset="0"/>
      <stop id="stop16110" stop-color="#e6e5e3" offset=".010417"/>
      <stop id="stop16114" stop-color="#ded9d1" offset=".25649"/>
      <stop id="stop16112" stop-color="#1d1915" offset=".29128"/>
      <stop id="stop16108" offset=".29866"/>
      <stop id="stop16104" offset="1"/>
    </linearGradient>
    <linearGradient id="linearGradient16124" x1="254.26" gradientUnits="userSpaceOnUse" y1="281.5" gradientTransform="matrix(.86256 0 0 1 -20.094 0)" x2="324.87" y2="281.5">
      <stop id="stop16120" offset="0"/>
      <stop id="stop16122" stop-opacity="0" offset="1"/>
    </linearGradient>
  </defs>
  <g id="g17246">
    <path id="rect16097" fill="url(#linearGradient16106)" d="m66 0h618v864h-618z"/>
    <path id="path8407" opacity=".37" d="m141.14 339.84c0.49706 2.1521 2.152 3.6489 4.9537 4.5018 1.2483 0.38974 3.9483 0.84162 8.0942 1.3387 6.1963 0.75124 9.1166 5.1118 8.7664 13.054-0.20334 3.8918-2.1238 6.9645-5.7727 9.2126-3.2535 1.9544-7.1735 2.9315-11.766 2.9315-5.0045 0-9.094-1.2766-12.291-3.824-3.5529-2.8525-5.4508-6.8968-5.7049-12.139-0.49706-10.054 3.4004-19.498 11.692-28.338 5.5468-5.897 14.217-8.8511 26.017-8.8511 3.8466 0 7.6198 0.33326 11.314 0.98848 10.145 1.8414 18.414 7.1396 24.814 15.889 5.7953 7.9474 8.7042 16.544 8.7042 25.785 0 1.3443-0.0791 2.6774-0.23159 3.9765-1.35 11.591-9.0996 24.085-23.238 37.472-10.896 10.354-24.04 19.979-39.432 28.88-13.596 7.7948-21.566 11.297-23.916 10.551l-0.67217-2.9259c8.4501-2.9428 16.991-7.5068 25.638-13.709 11.444-8.1564 19.764-15.85 24.96-23.096 6.2415-8.6421 10.376-19.385 12.364-32.23 0.80208-5.0554 1.1975-9.625 1.1975-13.72 0-13.449-4.5244-22.887-13.568-28.338-3.9539-2.4062-8.145-3.6094-12.59-3.6094-6.5917 0-11.992 1.9657-16.194 5.8631-2.3498 2.1408-3.519 4.6035-3.519 7.4164 0.006 0.8981 0.12991 1.8696 0.37845 2.9202zm91.42-6.6765c1.9713 1.9035 2.9598 4.2759 2.9598 7.117 0 2.1521-0.64957 4.1064-1.9487 5.8461-1.8527 2.5023-4.451 3.7506-7.7948 3.7506-2.5474 0-4.7503-0.80208-6.5974-2.3949-2.1972-1.9487-3.293-4.434-3.293-7.4164 0-2.3949 0.723-4.5075 2.1746-6.3037 1.8414-2.3102 4.321-3.4456 7.422-3.4456 2.7451 0 5.0949 0.94893 7.0775 2.8468zm0 34.636c1.9713 1.8979 2.9598 4.2646 2.9598 7.117 0 2.1521-0.64957 4.1064-1.9487 5.8574-1.8527 2.4797-4.451 3.728-7.7948 3.728-2.5474 0-4.7503-0.78514-6.5974-2.3949-2.1972-1.9431-3.293-4.4227-3.293-7.4164 0-2.3949 0.723-4.4962 2.1746-6.2867 1.8414-2.2989 4.321-3.4512 7.422-3.4512 2.7451 0.006 5.0949 0.93199 7.0775 2.8468z"/>
    <path id="path10357" opacity=".37" d="m212.29 191c0 8.2185-2.1295 15.765-6.1907 22.21-4.0556 6.6708-10.235 11.568-18.555 14.889l2.779 14.669 3.197 15.098c0 1.7849 0.21466 3.5698 0.42933 5.3434 0.20897 1.768 0.42363 3.5472 0.42363 5.5411 0 1.333-0.22028 2.6717-0.42363 4.2307-0.21467 1.542-0.42933 2.6717-0.6383 3.5472-0.21466 0.8868-0.64391 1.9939-1.0675 3.1123-0.42363 1.333-1.0675 2.4401-1.7058 3.5529-1.2822 2.2198-2.779 3.9991-4.4792 5.7784-1.9205 1.768-3.8353 3.3213-5.9761 4.2137-4.2589 2.4514-8.9471 3.5585-14.279 3.5585-7.4673 0-13.867-1.9939-19.199-6.2246-2.7678-2.2198-4.9028-4.66-6.3941-7.761-1.4912-3.1236-2.1294-6.4562-2.1294-9.7718v-4.4566l1.7001-4.66c1.0675-2.4401 2.7791-4.6543 5.3322-6.8968 2.3498-1.9939 5.3377-3.0897 8.5348-3.0897 2.3498 0 4.6882 0.66652 7.0435 1.9996 2.3385 1.3217 4.2533 3.3326 5.7558 5.993 1.4912 2.6661 2.3441 5.5581 2.3441 8.6591 0 3.9934-1.4856 7.552-4.05 10.444-2.5587 2.892-5.9704 4.2137-10.026 4.2137h-1.4912c2.5643 4.2307 6.8233 6.2359 12.794 6.2359 2.5701 0 5.7614-0.45188 9.1731-1.7736 2.9824-1.3387 5.5411-3.1123 7.6762-5.3378 2.1295-1.768 3.632-4.2194 4.4792-6.8798 0.85296-2.6661 1.4913-6.6765 1.4913-11.997v-5.7784c-0.42933-1.7849-0.84735-3.1066-0.84735-3.9934l-2.7734-13.11-2.779-12.421c-4.2646 1.3217-8.3201 1.7623-12.37 1.7623-7.0379 0-13.85-1.5477-20.47-4.6543-6.8234-3.1236-12.37-7.5576-17.064-12.884-2.5587-3.1066-4.6938-5.9986-6.3996-8.6591-1.7002-2.6717-3.4117-6.0043-4.9028-10.003-1.7058-4.0048-2.7734-7.326-3.197-10.218-0.42933-2.8751-0.85296-4.8859-0.85296-6.2246-0.21467-1.1071-0.21467-3.101-0.21467-5.7671 0-1.5646 0-3.1123 0.21467-4.8916 0-1.7793 0.21466-3.3326 0.64391-4.8859 0.42363-1.3274 0.85296-3.1123 1.4856-5.3378 0.44055-1.9939 1.0675-3.7675 1.7114-5.1062 2.3498-6.4336 5.3378-12.427 8.9641-17.99 2.9767-4.225 4.8971-6.8798 5.7501-8.2241 1.2822-1.7623 3.4173-4.4453 6.1907-7.5407l16.2-17.561c-0.84727-2.4401-1.4913-5.0949-1.9092-7.9982-0.64961-2.6604-1.2879-6.4392-1.9261-11.105-0.85858-4.4397-1.0675-9.5459-1.0675-15.115v-5.3265c0-1.768 0-3.5529 0.42363-5.3265l1.7058-10.444c1.2879-6.2133 3.2027-11.992 5.7614-16.663 2.5644-4.8859 5.3378-8.4444 8.3202-10.879 2.9824-2.4458 5.1118-3.7788 6.394-3.7788 1.0675 0.42929 1.7001 0.88681 2.1295 1.1071l2.7678 2.8864c7.6762 12.003 11.726 26.214 11.726 42.211l-0.63821 11.771c-0.41802 3.5529-1.2766 7.3317-2.3441 11.319-2.1295 7.7779-4.9086 15.11-8.7438 21.78-3.8353 6.8798-8.3145 12.664-13.432 17.55l5.3321 26.87h6.1851c5.1175 0 9.8114 1.1071 13.647 3.1123 2.1295 1.1127 4.0556 2.4401 5.767 3.9878 1.7058 1.559 3.4117 3.3326 4.8972 5.1118 2.5643 3.1066 4.9028 7.326 6.6087 12.664 1.7001 5.3152 2.5587 10.421 2.5587 15.313zm-31.134 33.987-10.02-54.214c-3.8409 0.8868-7.4616 3.5585-10.885 7.5576-3.4117 4.0048-5.1175 8.6591-5.1175 13.771 0 3.1066 0.85858 6.4505 2.7734 9.9978 1.9205 3.5585 4.9142 6.4449 8.9584 8.2241 1.2822 0 1.9149 0.67781 1.9149 1.7793-0.84726 0.66651-1.4856 0.8868-1.9149 0.8868-5.9704-1.3217-10.873-4.6656-14.929-10.003-0.85287-0.88681-1.4856-2.2311-2.344-3.7732-0.85297-1.3274-1.4969-2.8751-2.1295-4.4397-1.0676-3.3326-1.4969-6.4392-1.4969-9.3312 0-3.5416 0.42925-7.1058 1.4969-10.212 0.42924-1.559 1.0618-3.1236 1.9204-4.6713 0.6383-1.3274 1.4969-3.1066 2.7791-4.8859 3.8353-5.9986 8.9527-10.438 15.347-13.33l-4.4736-24.441c-10.659 9.1109-18.979 18.453-24.955 27.773-3.4117 5.1231-5.9648 10.229-7.6763 15.556-1.7058 5.3378-2.5643 10.664-2.5643 15.77 0 1.3274 0 2.892 0.22027 4.225 0.22028 1.333 0.42363 2.4401 0.42363 3.1179l2.1295 7.5463c1.7058 4.434 4.6938 8.6591 8.5348 12.873 4.0443 4.225 8.3145 7.3317 13.217 9.3312 4.6882 1.9996 10.02 2.8864 15.782 2.8864h5.9705l7.0379-1.9939zm5.1175-172.59v-5.1118c-0.42364-2.4458-1.2822-4.4566-2.5588-5.5637-1.2878-1.3274-2.9823-1.9939-4.9084-1.9939-4.05 0-7.6706 2.6548-10.873 7.552-1.0676 1.9939-2.1295 4.2137-3.197 6.6708-1.0619 2.6604-2.1239 5.5355-2.9824 9.094l-1.9205 9.1053-0.6382 8.885c0 3.3326 0.21457 5.993 0.6382 7.9982 0.42934 2.2311 0.6383 3.7732 0.85858 4.6656 0.20905 0.89246 0.85296 2.4458 1.7002 4.2307 2.1351-1.3274 4.4735-3.5642 7.4673-7.1114l7.8909-11.777c2.5531-4.4397 4.6882-9.1053 6.1794-13.777 0.42933-1.3274 1.0619-3.5416 1.7058-6.6595l0.6383-6.2076zm15.352 142.82c-0.43495-4.66-1.9261-8.8794-4.0556-12.873-2.1351-3.7845-5.1175-6.8855-8.9528-9.111-3.8409-2.2255-7.8965-3.3382-12.579-3.3382l10.444 53.31c10.026-4.4227 15.143-13.771 15.143-27.988z"/>
  </g>
  <path id="path17393" fill="#5f5f5f" d="m66 719h618v1h-618z"/>
  <path id="path17391" fill="#3f3f3f" d="m66 707h618v1h-618z"/>
  <path id="path17389" fill="#3f3f3f" d="m66 695h618v1h-618z"/>
  <path id="path17387" fill="#3f3f3f" d="m66 683h618v1h-618z"/>
  <path id="path17385" fill="#3f3f3f" d="m66 671h618v1h-618z"/>
  <path id="path17383" fill="#3f3f3f" d="m66 659h618v1h-618z"/>
  <path id="path17381" fill="#3f3f3f" d="m66 791h618v1h-618z"/>
  <path id="path17379" fill="#3f3f3f" d="m66 779h618v1h-618z"/>
  <path id="path17377" fill="#3f3f3f" d="m66 767h618v1h-618z"/>
  <path id="path17375" fill="#3f3f3f" d="m66 755h618v1h-618z"/>
  <path id="path17373" fill="#3f3f3f" d="m66 743h618v1h-618z"/>
  <path id="path17371" fill="#3f3f3f" d="m66 731h618v1h-618z"/>
  <path id="path17369" fill="#5f5f5f" d="m66 575h618v1h-618z"/>
  <path id="path17367" fill="#3f3f3f" d="m66 563h618v1h-618z"/>
  <path id="path17365" fill="#3f3f3f" d="m66 551h618v1h-618z"/>
  <path id="path17363" fill="#3f3f3f" d="m66 539h618v1h-618z"/>
  <path id="path17361" fill="#3f3f3f" d="m66 527h618v1h-618z"/>
  <path id="path17359" fill="#3f3f3f" d="m66 515h618v1h-618z"/>
  <path id="path17357" fill="#3f3f3f" d="m66 647h618v1h-618z"/>
  <path id="path17355" fill="#3f3f3f" d="m66 635h618v1h-618z"/>
  <path id="path17353" fill="#3f3f3f" d="m66 623h618v1h-618z"/>
  <path id="path17351" fill="#3f3f3f" d="m66 611h618v1h-618z"/>
  <path id="path17349" fill="#3f3f3f" d="m66 599h618v1h-618z"/>
  <path id="path17347" fill="#3f3f3f" d="m66 587h618v1h-618z"/>
  <path id="path17345" fill="#5f5f5f" d="m66 431h618v1h-618z"/>
  <path id="path17343" fill="#3f3f3f" d="m66 419h618v1h-618z"/>
  <path id="path17341" fill="#3f3f3f" d="m66 407h618v1h-618z"/>
  <path id="path17339" fill="#3f3f3f" d="m66 395h618v1h-618z"/>
  <path id="path17337" fill="#3f3f3f" d="m66 383h618v1h-618z"/>
  <path id="path17335" fill="#3f3f3f" d="m66 371h618v1h-618z"/>
  <path id="path17333" fill="#3f3f3f" d="m66 503h618v1h-618z"/>
  <path id="path17331" fill="#3f3f3f" d="m66 491h618v1h-618z"/>
  <path id="path17329" fill="#3f3f3f" d="m66 479h618v1h-618z"/>
  <path id="path17327" fill="#3f3f3f" d="m66 467h618v1h-618z"/>
  <path id="path17325" fill="#3f3f3f" d="m66 455h618v1h-618z"/>
  <path id="path17323" fill="#3f3f3f" d="m66 443h618v1h-618z"/>
  <path id="path17321" fill="#5f5f5f" d="m66 287h618v1h-618z"/>
  <path id="path17319" fill="#3f3f3f" d="m66 275h618v1h-618z"/>
  <path id="path17317" fill="#3f3f3f" d="m66 263h618v1h-618z"/>
  <path id="path17315" fill="#3f3f3f" d="m66 251h618v1h-618z"/>
  <path id="path17313" fill="#3f3f3f" d="m66 239h618v1h-618z"/>
  <path id="path17311" fill="#3f3f3f" d="m66 227h618v1h-618z"/>
  <path id="path17309" fill="#3f3f3f" d="m66 359h618v1h-618z"/>
  <path id="path17307" fill="#3f3f3f" d="m66 347h618v1h-618z"/>
  <path id="path17305" fill="#3f3f3f" d="m66 335h618v1h-618z"/>
  <path id="path17303" fill="#3f3f3f" d="m66 323h618v1h-618z"/>
  <path id="path17301" fill="#3f3f3f" d="m66 311h618v1h-618z"/>
  <path id="path17299" fill="#3f3f3f" d="m66 299h618v1h-618z"/>
  <path id="path17297" fill="#5f5f5f" d="m66 143h618v1h-618z"/>
  <path id="path17295" fill="#3f3f3f" d="m66 131h618v1h-618z"/>
  <path id="path17293" fill="#3f3f3f" d="m66 119h618v1h-618z"/>
  <path id="path17291" fill="#3f3f3f" d="m66 107h618v1h-618z"/>
  <path id="path17289" fill="#3f3f3f" d="m66 95h618v1h-618z"/>
  <path id="path17287" fill="#3f3f3f" d="m66 83h618v1h-618z"/>
  <path id="path17285" fill="#3f3f3f" d="m66 215h618v1h-618z"/>
  <path id="path17283" fill="#3f3f3f" d="m66 203h618v1h-618z"/>
  <path id="path17281" fill="#3f3f3f" d="m66 191h618v1h-618z"/>
  <path id="path17279" fill="#3f3f3f" d="m66 179h618v1h-618z"/>
  <path id="path17277" fill="#3f3f3f" d="m66 167h618v1h-618z"/>
  <path id="path17275" fill="#3f3f3f" d="m66 155h618v1h-618z"/>
  <path id="path17273" fill="#3f3f3f" d="m66 71h618v1h-618z"/>
  <path id="path17271" fill="#3f3f3f" d="m66 59h618v1h-618z"/>
  <path id="path17269" fill="#3f3f3f" d="m66 47h618v1h-618z"/>
  <path id="path17267" fill="#3f3f3f" d="m66 35h618v1h-618z"/>
  <path id="path17265" fill="#3f3f3f" d="m66 23h618v1h-618z"/>
  <path id="path17263" fill="#3f3f3f" d="m66 11h618v1h-618z"/>
  <path id="path17261" fill="#5f5f5f" d="m66 863h618v1h-618z"/>
  <path id="path17259" fill="#3f3f3f" d="m66 851h618v1h-618z"/>
  <path id="path17257" fill="#3f3f3f" d="m66 839h618v1h-618z"/>
  <path id="path17255" fill="#3f3f3f" d="m66 827h618v1h-618z"/>
  <path id="path17253" fill="#3f3f3f" d="m66 815h618v1h-618z"/>
  <path id="path7709" fill="#3f3f3f" d="m66 803h618v1h-618z"/>
  <path id="path10350" fill="url(#linearGradient16124)" d="m86 485h178v1h-178zm0-48h178v1h-178zm0-36h178v1h-178zm0-36 178-0.0005v1.1008l-178-0.1zm0-48h178v1h-178zm0-240h178v1h-178zm0 36h178v1h-178zm0 36h178v1h-178zm0 48h178v1h-178zm0 36h178v1h-178z"/>
  <g id="g17194">
    <path id="path9859" d="m103.87 277.95c1.3407 2.3221-0.3219 5.7919-3.7135 7.75s-7.2277 1.663-8.5684-0.65909c-1.3406-2.3221 0.3219-5.7919 3.7134-7.75 3.3916-1.9581 7.2278-1.663 8.5685 0.65911z"/>
    <path id="path10058" d="m103.87 253.95c1.3407 2.3221-0.3219 5.7919-3.7135 7.75s-7.2277 1.663-8.5684-0.65909c-1.3406-2.3221 0.3219-5.7919 3.7134-7.75 3.3916-1.9581 7.2278-1.663 8.5685 0.65911z"/>
    <path id="path10060" d="m103.87 229.95c1.3407 2.3221-0.3219 5.7919-3.7135 7.75s-7.2277 1.663-8.5684-0.65909c-1.3406-2.3221 0.3219-5.7919 3.7134-7.75 3.3916-1.9581 7.2278-1.663 8.5685 0.65911z"/>
    <path id="path10064" d="m103.87 218.06c1.3407 2.3221-0.3219 5.7919-3.7135 7.75s-7.2277 1.663-8.5684-0.65909c-1.3406-2.3221 0.3219-5.7919 3.7134-7.75 3.3916-1.9581 7.2278-1.663 8.5685 0.65911z"/>
    <path id="path10066" d="m103.87 193.95c1.3407 2.3221-0.3219 5.7919-3.7135 7.75s-7.2277 1.663-8.5684-0.65909c-1.3406-2.3221 0.3219-5.7919 3.7134-7.75 3.3916-1.9581 7.2278-1.663 8.5685 0.65911z"/>
    <path id="path10070" d="m103.87 169.95c1.3407 2.3221-0.3219 5.7919-3.7135 7.75s-7.2277 1.663-8.5684-0.65909c-1.3406-2.3221 0.3219-5.7919 3.7134-7.75 3.3916-1.9581 7.2278-1.663 8.5685 0.65911z"/>
    <path id="path10072" d="m103.87 145.95c1.3407 2.3221-0.3219 5.7919-3.7135 7.75s-7.2277 1.663-8.5684-0.65909c-1.3406-2.3221 0.3219-5.7919 3.7134-7.75 3.3916-1.9581 7.2278-1.663 8.5685 0.65911z"/>
    <path id="path10076" d="m103.87 133.95c1.3407 2.3221-0.3219 5.7919-3.7135 7.75s-7.2277 1.663-8.5684-0.65909c-1.3406-2.3221 0.3219-5.7919 3.7134-7.75 3.3916-1.9581 7.2278-1.663 8.5685 0.65911z"/>
    <path id="path10078" d="m103.87 109.95c1.3407 2.3221-0.3219 5.7919-3.7135 7.75s-7.2277 1.663-8.5684-0.65909c-1.3406-2.3221 0.3219-5.7919 3.7134-7.75 3.3916-1.9581 7.2278-1.663 8.5685 0.65911z"/>
    <path id="path10150" d="m103.87 85.955c1.3407 2.3221-0.3219 5.7919-3.7135 7.75s-7.2277 1.663-8.5684-0.65909c-1.3406-2.3221 0.3219-5.7919 3.7134-7.75 3.3916-1.9581 7.2278-1.663 8.5685 0.65911z"/>
    <path id="path10156" d="m103.87 73.955c1.3407 2.3221-0.3219 5.7919-3.7135 7.75s-7.2277 1.663-8.5684-0.65909c-1.3406-2.3221 0.3219-5.7919 3.7134-7.75 3.3916-1.9581 7.2278-1.663 8.5685 0.65911z"/>
    <path id="path10164" d="m103.87 289.95c1.3407 2.3221-0.3219 5.7919-3.7135 7.75s-7.2277 1.663-8.5684-0.65909c-1.3406-2.3221 0.3219-5.7919 3.7134-7.75 3.3916-1.9581 7.2278-1.663 8.5685 0.65911z"/>
    <path id="path10166" d="m103.87 313.95c1.3407 2.3221-0.3219 5.7919-3.7135 7.75s-7.2277 1.663-8.5684-0.65909c-1.3406-2.3221 0.3219-5.7919 3.7134-7.75 3.3916-1.9581 7.2278-1.663 8.5685 0.65911z"/>
    <path id="path17125" style="block-progression:tb;color:#000000;text-transform:none;text-indent:0" d="m75 290.4c-0.000001-0.26666 0.13333-0.39999 0.4-0.4 0.26666 0.00001 0.4 0.13334 0.4 0.4v2h1.6c0.4404 0.00001 0.81717 0.15354 1.1303 0.46061s0.46969 0.67677 0.4697 1.1091v3.6303c-0.000005 0.26667-0.13334 0.4-0.4 0.4-0.26667 0-0.4-0.13333-0.4-0.4v-3.6c-0.000004-0.22626-0.07677-0.41616-0.2303-0.5697-0.154-0.15-0.344-0.23-0.57-0.23h-1.6v4.4c-0.000002 0.26667-0.13334 0.4-0.4 0.4-0.26667 0-0.4-0.13333-0.4-0.4z"/>
    <path id="path10178" d="m103.87 421.95c1.3407 2.3221-0.3219 5.7919-3.7135 7.75s-7.2277 1.663-8.5684-0.65909c-1.3406-2.3221 0.3219-5.7919 3.7134-7.75 3.3916-1.9581 7.2278-1.663 8.5685 0.65911z"/>
    <path id="path10180" d="m103.87 397.95c1.3407 2.3221-0.3219 5.7919-3.7135 7.75s-7.2277 1.663-8.5684-0.65909c-1.3406-2.3221 0.3219-5.7919 3.7134-7.75 3.3916-1.9581 7.2278-1.663 8.5685 0.65911z"/>
    <path id="path10182" d="m103.87 373.95c1.3407 2.3221-0.3219 5.7919-3.7135 7.75s-7.2277 1.663-8.5684-0.65909c-1.3406-2.3221 0.3219-5.7919 3.7134-7.75 3.3916-1.9581 7.2278-1.663 8.5685 0.65911z"/>
    <path id="path10184" d="m103.87 362.06c1.3407 2.3221-0.3219 5.7919-3.7135 7.75s-7.2277 1.663-8.5684-0.65909c-1.3406-2.3221 0.3219-5.7919 3.7134-7.75 3.3916-1.9581 7.2278-1.663 8.5685 0.65911z"/>
    <path id="path10186" d="m103.87 337.95c1.3407 2.3221-0.3219 5.7919-3.7135 7.75s-7.2277 1.663-8.5684-0.65909c-1.3406-2.3221 0.3219-5.7919 3.7134-7.75 3.3916-1.9581 7.2278-1.663 8.5685 0.65911z"/>
    <path id="path10210" d="m103.87 433.95c1.3407 2.3221-0.3219 5.7919-3.7135 7.75s-7.2277 1.663-8.5684-0.65909c-1.3406-2.3221 0.3219-5.7919 3.7134-7.75 3.3916-1.9581 7.2278-1.663 8.5685 0.65911z"/>
    <path id="path10262" d="m103.87 457.95c1.3407 2.3221-0.3219 5.7919-3.7135 7.75s-7.2277 1.663-8.5684-0.65909c-1.3406-2.3221 0.3219-5.7919 3.7134-7.75 3.3916-1.9581 7.2278-1.663 8.5685 0.65911z"/>
    <path id="path10270" d="m103.87 565.95c1.3407 2.3221-0.3219 5.7919-3.7135 7.75s-7.2277 1.663-8.5684-0.65909c-1.3406-2.3221 0.3219-5.7919 3.7134-7.75 3.3916-1.9581 7.2278-1.663 8.5685 0.65911z"/>
    <path id="path10272" d="m103.87 541.95c1.3407 2.3221-0.3219 5.7919-3.7135 7.75s-7.2277 1.663-8.5684-0.65909c-1.3406-2.3221 0.3219-5.7919 3.7134-7.75 3.3916-1.9581 7.2278-1.663 8.5685 0.65911z"/>
    <path id="path10274" d="m103.87 517.95c1.3407 2.3221-0.3219 5.7919-3.7135 7.75s-7.2277 1.663-8.5684-0.65909c-1.3406-2.3221 0.3219-5.7919 3.7134-7.75 3.3916-1.9581 7.2278-1.663 8.5685 0.65911z"/>
    <path id="path10276" d="m103.87 506.06c1.3407 2.3221-0.3219 5.7919-3.7135 7.75s-7.2277 1.663-8.5684-0.65909c-1.3406-2.3221 0.3219-5.7919 3.7134-7.75 3.3916-1.9581 7.2278-1.663 8.5685 0.65911z"/>
    <path id="path10278" d="m103.87 481.95c1.3407 2.3221-0.3219 5.7919-3.7135 7.75s-7.2277 1.663-8.5684-0.65909c-1.3406-2.3221 0.3219-5.7919 3.7134-7.75 3.3916-1.9581 7.2278-1.663 8.5685 0.65911z"/>
    <path id="path17119" style="block-progression:tb;color:#000000;text-transform:none;text-indent:0" d="m80.6 278c0.26666 0.00001 0.4 0.13132 0.4 0.39394-0.000002 0.0364-0.004 0.0707-0.01212 0.10303l-0.4 1.6c-0.04849 0.20203-0.17778 0.30304-0.38788 0.30303-0.26667 0.00001-0.4-0.13333-0.4-0.4-0.000001-0.0323 0.13737-0.59797 0.41212-1.697 0.04848-0.20201 0.17778-0.30302 0.38788-0.30303zm-4.8 4v2.4c-0.000002 0.21818 0.07879 0.40606 0.23636 0.56364 0.15757 0.15757 0.34545 0.23636 0.56364 0.23636h1.2c0.26666 0 0.4 0.13333 0.4 0.4-0.000004 0.26667-0.13334 0.4-0.4 0.4h-1.2c-0.44849 0-0.82727-0.15455-1.1364-0.46364-0.30909-0.30909-0.46364-0.68787-0.46364-1.1364v-2.4c-0.000001-0.44848 0.15454-0.82727 0.46364-1.1364 0.30909-0.30909 0.68788-0.46363 1.1364-0.46364h1.2c0.26666 0.00001 0.4 0.13334 0.4 0.4-0.000004 0.26667-0.13334 0.4-0.4 0.4h-1.2c-0.22222 0-0.41111 0.0778-0.56667 0.23333-0.15556 0.15556-0.23334 0.34445-0.23333 0.56667z"/>
    <path id="path17111" style="block-progression:tb;color:#000000;text-transform:none;text-indent:0" d="m81.4 254c0.26666 0.00001 0.4 0.13132 0.4 0.39394-0.000002 0.0364-0.004 0.0707-0.01212 0.10303l-0.4 1.6c-0.04849 0.20203-0.17778 0.30304-0.38788 0.30303-0.26667 0.00001-0.4-0.13333-0.4-0.4-0.000001-0.0323 0.13737-0.59797 0.41212-1.697 0.04848-0.20201 0.17778-0.30302 0.38788-0.30303zm-6.4 4c-0.000001-0.2909 0.07071-0.55959 0.21212-0.80606 0.30303-0.52929 0.76566-0.79393 1.3879-0.79394h1.6v-2c-0.000004-0.26666 0.13333-0.39999 0.4-0.4 0.26666 0.00001 0.4 0.13334 0.4 0.4v7.2c-0.000005 0.26667-0.13334 0.4-0.4 0.4h-2c-0.44849 0-0.82727-0.15455-1.1364-0.46364-0.30909-0.30909-0.46364-0.68787-0.46364-1.1364zm1.6-0.8c-0.22222 0-0.41111 0.0778-0.56667 0.23333-0.15556 0.15556-0.23334 0.34445-0.23333 0.56667v2.4c-0.000002 0.21818 0.07879 0.40606 0.23636 0.56364 0.15757 0.15757 0.34545 0.23636 0.56364 0.23636h1.6v-4z"/>
    <path id="path17103" style="block-progression:tb;color:#000000;text-transform:none;text-indent:0" d="m81.4 230c0.26666 0.00001 0.4 0.13132 0.4 0.39394-0.000002 0.0364-0.004 0.0707-0.01212 0.10303l-0.4 1.6c-0.04849 0.20203-0.17778 0.30304-0.38788 0.30303-0.26667 0.00001-0.4-0.13333-0.4-0.4-0.000001-0.0323 0.13737-0.59797 0.41212-1.697 0.04848-0.20201 0.17778-0.30302 0.38788-0.30303zm-4.4 3.2c-0.33132 0-0.61414 0.11718-0.84848 0.35152s-0.35152 0.51717-0.35152 0.84848v0.4h2.4v-0.4c-0.000004-0.33131-0.11718-0.61414-0.35152-0.84848-0.234-0.23-0.517-0.35-0.848-0.35zm-1.2 2.4v0.8c-0.000002 0.21818 0.07879 0.40606 0.23636 0.56364 0.15757 0.15757 0.34545 0.23636 0.56364 0.23636h2c0.26666 0 0.4 0.13333 0.4 0.4-0.000005 0.26667-0.13334 0.4-0.4 0.4h-2c-0.44849 0-0.82727-0.15455-1.1364-0.46364-0.30909-0.30909-0.46364-0.68787-0.46364-1.1364v-2c-0.000001-0.55353 0.19495-1.0252 0.58485-1.4152 0.3899-0.38989 0.86161-0.58484 1.4152-0.58485 0.56161 0.00001 1.0354 0.19293 1.4212 0.57879 0.38585 0.38586 0.57878 0.8596 0.57879 1.4212v1.2z"/>
    <path id="path17095" style="block-progression:tb;color:#000000;text-transform:none;text-indent:0" d="m80.6 218c0.26666 0.00001 0.4 0.13132 0.4 0.39394-0.000002 0.0364-0.004 0.0707-0.01212 0.10303l-0.4 1.6c-0.04849 0.20203-0.17778 0.30304-0.38788 0.30303-0.26667 0.00001-0.4-0.13333-0.4-0.4-0.000001-0.0323 0.13737-0.59797 0.41212-1.697 0.04848-0.20201 0.17778-0.30302 0.38788-0.30303zm-5.2 2.4h0.4v-0.8c-0.000002-0.44848 0.15555-0.82727 0.46667-1.1364 0.31111-0.30909 0.68889-0.46363 1.1333-0.46364h0.4c0.26666 0.00001 0.4 0.13334 0.4 0.4-0.000004 0.26667-0.13334 0.40001-0.4 0.4h-0.4c-0.22222 0.00001-0.41111 0.0778-0.56667 0.23333-0.15556 0.15557-0.23334 0.34445-0.23333 0.56667v0.8h1.2c0.26666 0.00001 0.4 0.13334 0.4 0.4-0.000004 0.26667-0.13334 0.4-0.4 0.4h-1.2v4.4c-0.000003 0.26667-0.13334 0.4-0.4 0.4-0.26667 0-0.4-0.13333-0.4-0.4v-4.4h-0.4c-0.26667 0-0.4-0.13333-0.4-0.4-0.000001-0.26666 0.13333-0.39999 0.4-0.4z"/>
    <path id="path17087" style="block-progression:tb;color:#000000;text-transform:none;text-indent:0" d="m81.4 193.6c0.26666 0 0.4 0.13132 0.4 0.39394-0.000002 0.0364-0.004 0.0707-0.01212 0.10303l-0.4 1.6c-0.04849 0.20202-0.17778 0.30303-0.38788 0.30303-0.26667 0-0.4-0.13333-0.4-0.4-0.000001-0.0323 0.13737-0.59798 0.41212-1.697 0.04848-0.20202 0.17778-0.30303 0.38788-0.30303zm-2.8 2.4c0.26666 0 0.4 0.13334 0.4 0.4v6c-0.000005 0.44848-0.15455 0.82727-0.46364 1.1364-0.30909 0.30909-0.68788 0.46363-1.1364 0.46364h-1.6c-0.26667-0.00001-0.4-0.13334-0.4-0.4-0.000001-0.26667 0.13333-0.40001 0.4-0.4h1.6c0.22222-0.00001 0.41111-0.0778 0.56667-0.23334 0.15555-0.15555 0.23333-0.34444 0.23333-0.56666v-0.8h-1.6c-0.62222 0-1.0848-0.26465-1.3879-0.79394-0.14142-0.24647-0.21212-0.51515-0.21212-0.80606v-2.4c-0.000001-0.44848 0.15454-0.82727 0.46364-1.1364 0.30909-0.30908 0.68788-0.46363 1.1364-0.46363zm-0.4 0.8h-1.6c-0.22222 0-0.41111 0.0778-0.56667 0.23333-0.15556 0.15556-0.23334 0.34445-0.23333 0.56667v2.4c-0.000002 0.21818 0.07879 0.40606 0.23636 0.56363 0.15757 0.15758 0.34545 0.23637 0.56364 0.23637h1.6z"/>
    <path id="path17079" style="block-progression:tb;color:#000000;text-transform:none;text-indent:0" d="m81.4 170c0.26666 0.00001 0.4 0.13132 0.4 0.39394-0.000002 0.0364-0.004 0.0707-0.01212 0.10303l-0.4 1.6c-0.04849 0.20203-0.17778 0.30304-0.38788 0.30303-0.26667 0.00001-0.4-0.13333-0.4-0.4-0.000001-0.0323 0.13737-0.59797 0.41212-1.697 0.04848-0.20201 0.17778-0.30302 0.38788-0.30303zm-4.8 8c-0.44849 0-0.82727-0.15455-1.1364-0.46364-0.30909-0.30909-0.46364-0.68787-0.46364-1.1364-0.000001-0.29091 0.07071-0.55959 0.21212-0.80606 0.30303-0.52929 0.76566-0.79394 1.3879-0.79394h1.6v-0.8c-0.000004-0.22626-0.07677-0.41616-0.2303-0.5697-0.154-0.15-0.344-0.23-0.57-0.23h-1.6c-0.26667 0-0.4-0.13333-0.4-0.4-0.000001-0.26666 0.13333-0.39999 0.4-0.4h1.6c0.44848 0.00001 0.82727 0.15455 1.1364 0.46364 0.30909 0.30909 0.46363 0.68788 0.46364 1.1364v3.6c-0.000005 0.26667-0.13334 0.4-0.4 0.4zm1.6-2.4h-1.6c-0.22222 0-0.41111 0.0778-0.56667 0.23333-0.15556 0.15556-0.23334 0.34445-0.23333 0.56667-0.000002 0.21818 0.07879 0.40606 0.23636 0.56364 0.15757 0.15757 0.34545 0.23636 0.56364 0.23636h1.6z"/>
    <path id="path17071" style="block-progression:tb;color:#000000;text-transform:none;text-indent:0" d="m81.4 146c0.26666 0.00001 0.4 0.13132 0.4 0.39394-0.000002 0.0364-0.004 0.0707-0.01212 0.10303l-0.4 1.6c-0.04849 0.20203-0.17778 0.30304-0.38788 0.30303-0.26667 0.00001-0.4-0.13333-0.4-0.4-0.000001-0.0323 0.13737-0.59797 0.41212-1.697 0.04848-0.20201 0.17778-0.30302 0.38788-0.30303zm-6.4 0.4c-0.000001-0.26666 0.13333-0.39999 0.4-0.4 0.26666 0.00001 0.4 0.13334 0.4 0.4v2h1.6c0.4404 0.00001 0.81717 0.15354 1.1303 0.46061s0.46969 0.67677 0.4697 1.1091v3.6303c-0.000005 0.26667-0.13334 0.4-0.4 0.4-0.26667 0-0.4-0.13333-0.4-0.4v-3.6c-0.000004-0.22626-0.07677-0.41616-0.2303-0.5697-0.154-0.15-0.344-0.23-0.57-0.23h-1.6v4.4c-0.000002 0.26667-0.13334 0.4-0.4 0.4-0.26667 0-0.4-0.13333-0.4-0.4z"/>
    <path id="path17062" style="block-progression:tb;color:#000000;text-transform:none;text-indent:0" d="m83.412 134c0.26666 0.00001 0.4 0.13132 0.4 0.39394-0.000002 0.0364-0.004 0.0707-0.01212 0.10303l-0.4 1.6c-0.04849 0.20203-0.17778 0.30304-0.38788 0.30303-0.26667 0.00001-0.4-0.13333-0.4-0.4-0.000001-0.0323 0.13737-0.59797 0.41212-1.697 0.04848-0.20201 0.17778-0.30302 0.38788-0.30303zm-2.8121 0c0.26666 0.00001 0.4 0.13132 0.4 0.39394-0.000002 0.0364-0.004 0.0707-0.01212 0.10303l-0.4 1.6c-0.04849 0.20203-0.17778 0.30304-0.38788 0.30303-0.26667 0.00001-0.4-0.13333-0.4-0.4-0.000001-0.0323 0.13737-0.59797 0.41212-1.697 0.04848-0.20201 0.17778-0.30302 0.38788-0.30303zm-4.8 4v2.4c-0.000002 0.21818 0.07879 0.40606 0.23636 0.56364 0.15757 0.15757 0.34545 0.23636 0.56364 0.23636h1.2c0.26666 0 0.4 0.13333 0.4 0.4-0.000004 0.26667-0.13334 0.4-0.4 0.4h-1.2c-0.44849 0-0.82727-0.15455-1.1364-0.46364-0.30909-0.30909-0.46364-0.68787-0.46364-1.1364v-2.4c-0.000001-0.44848 0.15454-0.82727 0.46364-1.1364 0.30909-0.30909 0.68788-0.46363 1.1364-0.46364h1.2c0.26666 0.00001 0.4 0.13334 0.4 0.4-0.000004 0.26667-0.13334 0.4-0.4 0.4h-1.2c-0.22222 0-0.41111 0.0778-0.56667 0.23333-0.15556 0.15556-0.23334 0.34445-0.23333 0.56667z"/>
    <path id="path17051" style="block-progression:tb;color:#000000;text-transform:none;text-indent:0" d="m84.212 110c0.26666 0.00001 0.4 0.13132 0.4 0.39394-0.000002 0.0364-0.004 0.0707-0.01212 0.10303l-0.4 1.6c-0.04849 0.20203-0.17778 0.30304-0.38788 0.30303-0.26667 0.00001-0.4-0.13333-0.4-0.4-0.000001-0.0323 0.13737-0.59797 0.41212-1.697 0.04848-0.20201 0.17778-0.30302 0.38788-0.30303zm-2.8121 0c0.26666 0.00001 0.4 0.13132 0.4 0.39394-0.000002 0.0364-0.004 0.0707-0.01212 0.10303l-0.4 1.6c-0.04849 0.20203-0.17778 0.30304-0.38788 0.30303-0.26667 0.00001-0.4-0.13333-0.4-0.4-0.000001-0.0323 0.13737-0.59797 0.41212-1.697 0.04848-0.20201 0.17778-0.30302 0.38788-0.30303zm-6.4 4c-0.000001-0.2909 0.07071-0.55959 0.21212-0.80606 0.30303-0.52929 0.76566-0.79393 1.3879-0.79394h1.6v-2c-0.000004-0.26666 0.13333-0.39999 0.4-0.4 0.26666 0.00001 0.4 0.13334 0.4 0.4v7.2c-0.000005 0.26667-0.13334 0.4-0.4 0.4h-2c-0.44849 0-0.82727-0.15455-1.1364-0.46364-0.30909-0.30909-0.46364-0.68787-0.46364-1.1364zm1.6-0.8c-0.22222 0-0.41111 0.0778-0.56667 0.23333-0.15556 0.15556-0.23334 0.34445-0.23333 0.56667v2.4c-0.000002 0.21818 0.07879 0.40606 0.23636 0.56364 0.15757 0.15757 0.34545 0.23636 0.56364 0.23636h1.6v-4z"/>
    <path id="path17040" style="block-progression:tb;color:#000000;text-transform:none;text-indent:0" d="m84.212 86c0.26666 0.000008 0.4 0.13132 0.4 0.39394-0.000002 0.03637-0.004 0.07071-0.01212 0.10303l-0.4 1.6c-0.04849 0.20203-0.17778 0.30304-0.38788 0.30303-0.26667 0.000006-0.4-0.13333-0.4-0.4-0.000001-0.03232 0.13737-0.59797 0.41212-1.697 0.049-0.202 0.178-0.303 0.388-0.303zm-2.8121 0c0.26666 0.000008 0.4 0.13132 0.4 0.39394-0.000002 0.03637-0.004 0.07071-0.01212 0.10303l-0.4 1.6c-0.04849 0.20203-0.17778 0.30304-0.38788 0.30303-0.26667 0.000006-0.4-0.13333-0.4-0.4-0.000001-0.03232 0.13737-0.59797 0.41212-1.697 0.049-0.202 0.178-0.303 0.388-0.303zm-4.4 3.2c-0.33132 0.000005-0.61414 0.11718-0.84848 0.35152-0.23434 0.23435-0.35152 0.51718-0.35152 0.84848v0.4h2.4v-0.4c-0.000004-0.33131-0.11718-0.61414-0.35152-0.84848-0.234-0.235-0.517-0.352-0.848-0.352zm-1.2 2.4v0.8c-0.000002 0.21818 0.07879 0.40606 0.23636 0.56364s0.34545 0.23636 0.56364 0.23636h2c0.26666 0.000001 0.4 0.13333 0.4 0.4-0.000005 0.26667-0.13334 0.4-0.4 0.4h-2c-0.448 0-0.827-0.155-1.136-0.464s-0.464-0.688-0.464-1.136v-2c-0.000001-0.55353 0.19495-1.0252 0.58485-1.4152 0.3899-0.38989 0.86161-0.58484 1.4152-0.58485 0.56161 0.000006 1.0354 0.19294 1.4212 0.57879 0.38585 0.38586 0.57878 0.8596 0.57879 1.4212v1.2z"/>
    <path id="path17029" style="block-progression:tb;color:#000000;text-transform:none;text-indent:0" d="m83.412 74c0.26666 0.000008 0.4 0.13132 0.4 0.39394-0.000002 0.03637-0.004 0.07071-0.01212 0.10303l-0.4 1.6c-0.04849 0.20203-0.17778 0.30304-0.38788 0.30303-0.26667 0.000006-0.4-0.13333-0.4-0.4-0.000001-0.03232 0.13737-0.59797 0.41212-1.697 0.049-0.202 0.178-0.303 0.388-0.303zm-2.8121 0c0.26666 0.000008 0.4 0.13132 0.4 0.39394-0.000002 0.03637-0.004 0.07071-0.01212 0.10303l-0.4 1.6c-0.04849 0.20203-0.17778 0.30304-0.38788 0.30303-0.26667 0.000006-0.4-0.13333-0.4-0.4-0.000001-0.03232 0.13737-0.59797 0.41212-1.697 0.049-0.202 0.178-0.303 0.388-0.303zm-5.2 2.4h0.4v-0.8c-0.000002-0.44848 0.15555-0.82726 0.46667-1.1364 0.311-0.309 0.689-0.464 1.133-0.464h0.4c0.26666 0.000008 0.4 0.13334 0.4 0.4-0.000004 0.26667-0.13334 0.40001-0.4 0.4h-0.4c-0.22222 0.000007-0.41111 0.07779-0.56667 0.23333-0.15556 0.15556-0.23334 0.34445-0.23333 0.56667v0.8h1.2c0.26666 0.000006 0.4 0.13334 0.4 0.4-0.000004 0.26667-0.13334 0.4-0.4 0.4h-1.2v4.4c-0.000003 0.26667-0.13334 0.4-0.4 0.4-0.26667 0-0.4-0.13333-0.4-0.4v-4.4h-0.4c-0.26667 0.000005-0.4-0.13333-0.4-0.4-0.000001-0.26666 0.13333-0.39999 0.4-0.4z"/>
    <path id="path17160" style="block-progression:tb;color:#000000;text-transform:none;text-indent:0" d="m75 441.6v-7.2c-0.000001-0.26666 0.13333-0.39999 0.4-0.4 0.26666 0.00001 0.4 0.13334 0.4 0.4v2.8h3.2v-2.8c-0.000005-0.26666 0.13333-0.39999 0.4-0.4 0.26666 0.00001 0.39999 0.13334 0.4 0.4v7.2c-0.000006 0.26667-0.13334 0.4-0.4 0.4-0.26667 0-0.4-0.13333-0.4-0.4v-3.6h-3.2v3.6c-0.000002 0.26667-0.13334 0.4-0.4 0.4-0.26667 0-0.4-0.13333-0.4-0.4z"/>
    <path id="path17155" style="block-progression:tb;color:#000000;text-transform:none;text-indent:0" d="m75.8 426v2.4c-0.000002 0.21818 0.07879 0.40606 0.23636 0.56364 0.15757 0.15757 0.34545 0.23636 0.56364 0.23636h1.2c0.26666 0 0.4 0.13333 0.4 0.4-0.000004 0.26667-0.13334 0.4-0.4 0.4h-1.2c-0.44849 0-0.82727-0.15455-1.1364-0.46364-0.30909-0.30909-0.46364-0.68787-0.46364-1.1364v-2.4c-0.000001-0.44848 0.15454-0.82727 0.46364-1.1364 0.30909-0.30909 0.68788-0.46363 1.1364-0.46364h1.2c0.26666 0.00001 0.4 0.13334 0.4 0.4-0.000004 0.26667-0.13334 0.4-0.4 0.4h-1.2c-0.22222 0-0.41111 0.0778-0.56667 0.23333-0.15556 0.15556-0.23334 0.34445-0.23333 0.56667z"/>
    <path id="path17150" style="block-progression:tb;color:#000000;text-transform:none;text-indent:0" d="m75 402c-0.000001-0.2909 0.07071-0.55959 0.21212-0.80606 0.30303-0.52929 0.76566-0.79393 1.3879-0.79394h1.6v-2c-0.000004-0.26666 0.13333-0.39999 0.4-0.4 0.26666 0.00001 0.4 0.13334 0.4 0.4v7.2c-0.000005 0.26667-0.13334 0.4-0.4 0.4h-2c-0.44849 0-0.82727-0.15455-1.1364-0.46364-0.30909-0.30909-0.46364-0.68787-0.46364-1.1364zm1.6-0.8c-0.22222 0-0.41111 0.0778-0.56667 0.23333-0.15556 0.15556-0.23334 0.34445-0.23333 0.56667v2.4c-0.000002 0.21818 0.07879 0.40606 0.23636 0.56364 0.15757 0.15757 0.34545 0.23636 0.56364 0.23636h1.6v-4z"/>
    <path id="path17145" style="block-progression:tb;color:#000000;text-transform:none;text-indent:0" d="m77 377.2c-0.33132 0-0.61414 0.11718-0.84848 0.35152s-0.35152 0.51717-0.35152 0.84848v0.4h2.4v-0.4c-0.000004-0.33131-0.11718-0.61414-0.35152-0.84848-0.234-0.23-0.517-0.35-0.848-0.35zm-1.2 2.4v0.8c-0.000002 0.21818 0.07879 0.40606 0.23636 0.56364 0.15757 0.15757 0.34545 0.23636 0.56364 0.23636h2c0.26666 0 0.4 0.13333 0.4 0.4-0.000005 0.26667-0.13334 0.4-0.4 0.4h-2c-0.44849 0-0.82727-0.15455-1.1364-0.46364-0.30909-0.30909-0.46364-0.68787-0.46364-1.1364v-2c-0.000001-0.55353 0.19495-1.0252 0.58485-1.4152 0.3899-0.38989 0.86161-0.58484 1.4152-0.58485 0.56161 0.00001 1.0354 0.19293 1.4212 0.57879 0.38585 0.38586 0.57878 0.8596 0.57879 1.4212v1.2z"/>
    <path id="path17140" style="block-progression:tb;color:#000000;text-transform:none;text-indent:0" d="m75.4 364.4h0.4v-0.8c-0.000002-0.44848 0.15555-0.82727 0.46667-1.1364 0.31111-0.30909 0.68889-0.46363 1.1333-0.46364h0.4c0.26666 0.00001 0.4 0.13334 0.4 0.4-0.000004 0.26667-0.13334 0.40001-0.4 0.4h-0.4c-0.22222 0.00001-0.41111 0.0778-0.56667 0.23333-0.15556 0.15557-0.23334 0.34445-0.23333 0.56667v0.8h1.2c0.26666 0.00001 0.4 0.13334 0.4 0.4-0.000004 0.26667-0.13334 0.4-0.4 0.4h-1.2v4.4c-0.000003 0.26667-0.13334 0.4-0.4 0.4-0.26667 0-0.4-0.13333-0.4-0.4v-4.4h-0.4c-0.26667 0-0.4-0.13333-0.4-0.4-0.000001-0.26666 0.13333-0.39999 0.4-0.4z"/>
    <path id="path17135" style="block-progression:tb;color:#000000;text-transform:none;text-indent:0" d="m78.6 338c0.26666 0 0.4 0.13334 0.4 0.4v6c-0.000005 0.44848-0.15455 0.82727-0.46364 1.1364-0.30909 0.30909-0.68788 0.46363-1.1364 0.46364h-1.6c-0.26667-0.00001-0.4-0.13334-0.4-0.4-0.000001-0.26667 0.13333-0.40001 0.4-0.4h1.6c0.22222-0.00001 0.41111-0.0778 0.56667-0.23334 0.15555-0.15555 0.23333-0.34444 0.23333-0.56666v-0.8h-1.6c-0.62222 0-1.0848-0.26465-1.3879-0.79394-0.14142-0.24647-0.21212-0.51515-0.21212-0.80606v-2.4c-0.000001-0.44848 0.15454-0.82727 0.46364-1.1364 0.30909-0.30908 0.68788-0.46363 1.1364-0.46363zm-0.4 0.8h-1.6c-0.22222 0-0.41111 0.0778-0.56667 0.23333-0.15556 0.15556-0.23334 0.34445-0.23333 0.56667v2.4c-0.000002 0.21818 0.07879 0.40606 0.23636 0.56363 0.15757 0.15758 0.34545 0.23637 0.56364 0.23637h1.6z"/>
    <path id="path17130" style="block-progression:tb;color:#000000;text-transform:none;text-indent:0" d="m76.6 322c-0.44849 0-0.82727-0.15455-1.1364-0.46364-0.30909-0.30909-0.46364-0.68787-0.46364-1.1364-0.000001-0.29091 0.07071-0.55959 0.21212-0.80606 0.30303-0.52929 0.76566-0.79394 1.3879-0.79394h1.6v-0.8c-0.000004-0.22626-0.07677-0.41616-0.2303-0.5697-0.154-0.15-0.344-0.23-0.57-0.23h-1.6c-0.26667 0-0.4-0.13333-0.4-0.4-0.000001-0.26666 0.13333-0.39999 0.4-0.4h1.6c0.44848 0.00001 0.82727 0.15455 1.1364 0.46364 0.30909 0.30909 0.46363 0.68788 0.46364 1.1364v3.6c-0.000005 0.26667-0.13334 0.4-0.4 0.4zm1.6-2.4h-1.6c-0.22222 0-0.41111 0.0778-0.56667 0.23333-0.15556 0.15556-0.23334 0.34445-0.23333 0.56667-0.000002 0.21818 0.07879 0.40606 0.23636 0.56364 0.15757 0.15757 0.34545 0.23636 0.56364 0.23636h1.6z"/>
    <path id="path17165" style="block-progression:tb;color:#000000;text-transform:none;text-indent:0" d="m77.8 459.67-1.1758 3.5273h2.3515zm2.8 5.9273c-0.000007 0.26667-0.13334 0.4-0.4 0.4-0.19394 0-0.32122-0.0909-0.38182-0.27273l-0.576-1.73h-2.8848l-0.57576 1.7273c-0.06 0.18-0.187 0.27-0.381 0.27-0.26667 0-0.4-0.13333-0.4-0.4-0.000001-0.0485 0.0061-0.0909 0.01818-0.12727l2.3818-7.1515c0.07272-0.21413 0.20606-0.3212 0.4-0.32121 0.19394 0.00001 0.32525 0.10304 0.39394 0.30909l2.3879 7.1636c0.01211 0.0364 0.01817 0.0788 0.01818 0.12727z"/>
    <path id="path17170" style="block-progression:tb;color:#000000;text-transform:none;text-indent:0" d="m77 489.2h2v-3.2h-0.8c-0.26667 0-0.4-0.13333-0.4-0.4-0.000004-0.26666 0.13333-0.4 0.4-0.4h1.2c0.26666 0 0.39999 0.13334 0.4 0.4v4c-0.000006 0.26667-0.13334 0.4-0.4 0.4h-2.4c-0.55354 0-1.0253-0.19495-1.4152-0.58485s-0.58485-0.86161-0.58485-1.4152v-4c-0.000001-0.55353 0.19495-1.0252 0.58485-1.4152 0.3899-0.38989 0.86161-0.58484 1.4152-0.58485h2.4c0.26666 0.00001 0.39999 0.13334 0.4 0.4-0.000006 0.26667-0.13334 0.40001-0.4 0.4h-2.4c-0.33536 0.00001-0.61919 0.11718-0.85152 0.35152-0.23232 0.23435-0.34849 0.51717-0.34848 0.84848v4c-0.000002 0.33536 0.11616 0.61919 0.34848 0.85152 0.23232 0.23232 0.51616 0.34848 0.85152 0.34848z"/>
    <path id="path17175" style="block-progression:tb;color:#000000;text-transform:none;text-indent:0" d="m75 513.6v-7.2c-0.000001-0.26666 0.13333-0.39999 0.4-0.4h3.2c0.26666 0.00001 0.4 0.13334 0.4 0.4-0.000005 0.26667-0.13334 0.40001-0.4 0.4h-2.8v2.4h2.8c0.26666 0 0.4 0.13334 0.4 0.4-0.000005 0.26667-0.13334 0.4-0.4 0.4h-2.8v3.6c-0.000002 0.26667-0.13334 0.4-0.4 0.4-0.26667 0-0.4-0.13333-0.4-0.4z"/>
    <path id="path17180" style="block-progression:tb;color:#000000;text-transform:none;text-indent:0" d="m75 525.6v-7.2c-0.000001-0.26666 0.13333-0.39999 0.4-0.4h3.2c0.26666 0.00001 0.4 0.13334 0.4 0.4-0.000005 0.26667-0.13334 0.40001-0.4 0.4h-2.8v2.4h2c0.26666 0 0.4 0.13334 0.4 0.4-0.000004 0.26667-0.13334 0.4-0.4 0.4h-2v3.2h2.8c0.26666 0 0.4 0.13333 0.4 0.4-0.000005 0.26667-0.13334 0.4-0.4 0.4h-3.2c-0.26667 0-0.4-0.13333-0.4-0.4z"/>
    <path id="path17185" style="block-progression:tb;color:#000000;text-transform:none;text-indent:0" d="m75 542.4c-0.000001-0.26666 0.13333-0.39999 0.4-0.4h2.4c0.56161 0.00001 1.0353 0.19294 1.4212 0.57879 0.38585 0.38586 0.57878 0.8596 0.57879 1.4212v4c-0.000006 0.55354-0.19496 1.0252-0.58485 1.4152-0.39 0.39-0.861 0.58-1.415 0.58h-2.4c-0.26667 0-0.4-0.13333-0.4-0.4zm0.8 0.4v6.4h2c0.33131 0 0.61414-0.11717 0.84848-0.35152 0.23434-0.23434 0.35151-0.51717 0.35152-0.84848v-4c-0.000005-0.33131-0.11718-0.61413-0.35152-0.84848-0.23435-0.23434-0.51718-0.35151-0.84848-0.35152z"/>
    <path id="path17190" style="block-progression:tb;color:#000000;text-transform:none;text-indent:0" d="m78.6 566c0.26666 0.00001 0.4 0.13334 0.4 0.4-0.000005 0.26667-0.13334 0.40001-0.4 0.4h-1.6c-0.33536 0.00001-0.61919 0.11718-0.85152 0.35152-0.23232 0.23435-0.34849 0.51717-0.34848 0.84848v4c-0.000002 0.33131 0.11717 0.61414 0.35152 0.84848 0.23434 0.23435 0.51717 0.35152 0.84848 0.35152h1.6c0.26666 0 0.4 0.13333 0.4 0.4-0.000005 0.26667-0.13334 0.4-0.4 0.4h-1.6c-0.55354 0-1.0253-0.19495-1.4152-0.58485s-0.58485-0.86161-0.58485-1.4152v-4c-0.000001-0.55353 0.19495-1.0252 0.58485-1.4152 0.3899-0.38989 0.86161-0.58484 1.4152-0.58485z"/>
  </g>
  <g id="g15608">
    <path id="path4161" fill="#efefef" d="m0 864h65v-864h-65z"/>
    <path id="path4231" fill="#838383" d="m0 0v864h1v-864z"/>
    <path id="path4233" fill="url(#linearGradient13261)" d="m64 0v864h2v-864z"/>
    <g id="g13974" transform="translate(0,-61)">
      <g id="g13432">
        <path id="path4165" fill="url(#linearGradient13299)" d="m1 907h63v3h-63z"/>
        <path id="path4169" fill="#838383" d="m40 882.99h25v-1h-25z"/>
        <path id="path4171" fill="url(#linearGradient13295)" d="m1 883h63v3h-63z"/>
        <path id="path4175" fill="url(#linearGradient13292)" d="m1 865h63v3h-63z"/>
        <path id="path4179" fill="url(#linearGradient13289)" d="m1 847h63v3h-63z"/>
        <path id="path4183" fill="url(#linearGradient13286)" d="m1 823h63v3h-63z"/>
        <path id="path4187" fill="url(#linearGradient13283)" d="m1 799h63v3h-63z"/>
        <path id="path4191" fill="url(#linearGradient13280)" d="m1 921h63v3h-63z"/>
        <path id="path4195" fill="url(#linearGradient13277)" d="m1 903h63v3h-63z"/>
        <path id="path4199" fill="url(#linearGradient13274)" d="m1 879h63v3h-63z"/>
        <path id="path4203" fill="url(#linearGradient13271)" d="m1 861h63v3h-63z"/>
        <path id="path4207" fill="url(#linearGradient13268)" d="m1 843h63v3h-63z"/>
        <path id="path4211" fill="url(#linearGradient13265)" d="m1 818.99h63v3h-63z"/>
        <path id="rect3934" fill="#838383" d="m0 823h66v-1h-66z"/>
        <path id="path3961" fill="#838383" d="m0 847h66v-1h-66z"/>
        <path id="path4001" fill="#838383" d="m0 883h66v-1h-66z"/>
        <path id="path4021" fill="#838383" d="m0 907h66v-1h-66z"/>
        <path id="path4097" fill="#838383" d="m0 925h66v-1h-66z"/>
        <path id="path4101" fill="#838383" d="m0 865h66v-1h-66z"/>
        <g id="g3836" transform="translate(348,2472)">
          <path id="path3838" fill="url(#linearGradient11227)" d="m-348-1657h39l1 1v11l-3 3h-37z"/>
          <path id="path3840" d="m-348-1656h39v11h-39z"/>
          <path id="path3842" fill="url(#linearGradient11229)" d="m-348-1655h38v9h-38z"/>
          <path id="path3844" fill="url(#linearGradient11231)" d="m-348-1654h37v7h-37z"/>
        </g>
        <g id="g3951" transform="translate(348,2496)">
          <path id="path3953" fill="url(#linearGradient11227)" d="m-348-1657h39l1 1v11l-3 3h-37z"/>
          <path id="path3955" d="m-348-1656h39v11h-39z"/>
          <path id="path3957" fill="url(#linearGradient11229)" d="m-348-1655h38v9h-38z"/>
          <path id="path3959" fill="url(#linearGradient11231)" d="m-348-1654h37v7h-37z"/>
        </g>
        <g id="g3991" transform="translate(348,2532)">
          <path id="path3993" fill="url(#linearGradient11227)" d="m-348-1657h39l1 1v11l-3 3h-37z"/>
          <path id="path3995" d="m-348-1656h39v11h-39z"/>
          <path id="path3997" fill="url(#linearGradient11229)" d="m-348-1655h38v9h-38z"/>
          <path id="path3999" fill="url(#linearGradient11231)" d="m-348-1654h37v7h-37z"/>
        </g>
        <g id="g4011" transform="translate(348,2556)">
          <path id="path4013" fill="url(#linearGradient11227)" d="m-348-1657h39l1 1v11l-3 3h-37z"/>
          <path id="path4015" d="m-348-1656h39v11h-39z"/>
          <path id="path4017" fill="url(#linearGradient11253)" d="m-348-1655h38v9h-38z"/>
          <path id="path4019" fill="url(#linearGradient11255)" d="m-348-1654h37v7h-37z"/>
        </g>
        <path id="path13964" fill="url(#linearGradient13966)" d="m1 781h63v3h-63z"/>
        <path id="path13968" fill="#838383" d="m0 799h66v-1h-66z"/>
        <path id="path13970" fill="url(#linearGradient13972)" d="m1 795h63v3h-63z"/>
        <g id="g3971" transform="translate(348,2448)">
          <path id="path3973" fill="url(#linearGradient11227)" d="m-348-1657h39l1 1v11l-3 3h-37z"/>
          <path id="path3975" d="m-348-1656h39v11h-39z"/>
          <path id="path3977" fill="url(#linearGradient11229)" d="m-348-1655h38v9h-38z"/>
          <path id="path3979" fill="url(#linearGradient11231)" d="m-348-1654h37v7h-37z"/>
        </g>
      </g>
    </g>
    <g id="g14804" transform="translate(0,-205)">
      <g id="g14806">
        <path id="path14808" fill="url(#linearGradient13299)" d="m1 907h63v3h-63z"/>
        <path id="path14810" fill="#838383" d="m40 882.99h25v-1h-25z"/>
        <path id="path14812" fill="url(#linearGradient13295)" d="m1 883h63v3h-63z"/>
        <path id="path14814" fill="url(#linearGradient13292)" d="m1 865h63v3h-63z"/>
        <path id="path14816" fill="url(#linearGradient13289)" d="m1 847h63v3h-63z"/>
        <path id="path14818" fill="url(#linearGradient13286)" d="m1 823h63v3h-63z"/>
        <path id="path14820" fill="url(#linearGradient13283)" d="m1 799h63v3h-63z"/>
        <path id="path14822" fill="url(#linearGradient13280)" d="m1 921h63v3h-63z"/>
        <path id="path14824" fill="url(#linearGradient13277)" d="m1 903h63v3h-63z"/>
        <path id="path14826" fill="url(#linearGradient13274)" d="m1 879h63v3h-63z"/>
        <path id="path14828" fill="url(#linearGradient13271)" d="m1 861h63v3h-63z"/>
        <path id="path14830" fill="url(#linearGradient13268)" d="m1 843h63v3h-63z"/>
        <path id="path14832" fill="url(#linearGradient13265)" d="m1 818.99h63v3h-63z"/>
        <path id="path14834" fill="#838383" d="m0 823h66v-1h-66z"/>
        <path id="path14836" fill="#838383" d="m0 847h66v-1h-66z"/>
        <path id="path14838" fill="#838383" d="m0 883h66v-1h-66z"/>
        <path id="path14840" fill="#838383" d="m0 907h66v-1h-66z"/>
        <path id="path14842" fill="#838383" d="m0 925h66v-1h-66z"/>
        <path id="path14844" fill="#838383" d="m0 865h66v-1h-66z"/>
        <g id="g14846" transform="translate(348,2472)">
          <path id="path14848" fill="url(#linearGradient11227)" d="m-348-1657h39l1 1v11l-3 3h-37z"/>
          <path id="path14850" d="m-348-1656h39v11h-39z"/>
          <path id="path14852" fill="url(#linearGradient11229)" d="m-348-1655h38v9h-38z"/>
          <path id="path14854" fill="url(#linearGradient11231)" d="m-348-1654h37v7h-37z"/>
        </g>
        <g id="g14856" transform="translate(348,2496)">
          <path id="path14858" fill="url(#linearGradient11227)" d="m-348-1657h39l1 1v11l-3 3h-37z"/>
          <path id="path14860" d="m-348-1656h39v11h-39z"/>
          <path id="path14862" fill="url(#linearGradient11229)" d="m-348-1655h38v9h-38z"/>
          <path id="path14864" fill="url(#linearGradient11231)" d="m-348-1654h37v7h-37z"/>
        </g>
        <g id="g14866" transform="translate(348,2532)">
          <path id="path14868" fill="url(#linearGradient11227)" d="m-348-1657h39l1 1v11l-3 3h-37z"/>
          <path id="path14870" d="m-348-1656h39v11h-39z"/>
          <path id="path14872" fill="url(#linearGradient11229)" d="m-348-1655h38v9h-38z"/>
          <path id="path14874" fill="url(#linearGradient11231)" d="m-348-1654h37v7h-37z"/>
        </g>
        <g id="g14876" transform="translate(348,2556)">
          <path id="path14878" fill="url(#linearGradient11227)" d="m-348-1657h39l1 1v11l-3 3h-37z"/>
          <path id="path14880" d="m-348-1656h39v11h-39z"/>
          <path id="path14882" fill="url(#linearGradient11253)" d="m-348-1655h38v9h-38z"/>
          <path id="path14884" fill="url(#linearGradient11255)" d="m-348-1654h37v7h-37z"/>
        </g>
        <path id="path14886" fill="url(#linearGradient13966)" d="m1 781h63v3h-63z"/>
        <path id="path14888" fill="#838383" d="m0 799h66v-1h-66z"/>
        <path id="path14890" fill="url(#linearGradient13972)" d="m1 795h63v3h-63z"/>
        <g id="g14892" transform="translate(348,2448)">
          <path id="path14894" fill="url(#linearGradient11227)" d="m-348-1657h39l1 1v11l-3 3h-37z"/>
          <path id="path14896" d="m-348-1656h39v11h-39z"/>
          <path id="path14898" fill="url(#linearGradient11229)" d="m-348-1655h38v9h-38z"/>
          <path id="path14900" fill="url(#linearGradient11231)" d="m-348-1654h37v7h-37z"/>
        </g>
      </g>
    </g>
    <g id="g14960" transform="translate(0,-349)">
      <g id="g14962">
        <path id="path14964" fill="url(#linearGradient13299)" d="m1 907h63v3h-63z"/>
        <path id="path14966" fill="#838383" d="m40 882.99h25v-1h-25z"/>
        <path id="path14968" fill="url(#linearGradient13295)" d="m1 883h63v3h-63z"/>
        <path id="path14970" fill="url(#linearGradient13292)" d="m1 865h63v3h-63z"/>
        <path id="path14972" fill="url(#linearGradient13289)" d="m1 847h63v3h-63z"/>
        <path id="path14974" fill="url(#linearGradient13286)" d="m1 823h63v3h-63z"/>
        <path id="path14976" fill="url(#linearGradient13283)" d="m1 799h63v3h-63z"/>
        <path id="path14978" fill="url(#linearGradient13280)" d="m1 921h63v3h-63z"/>
        <path id="path14980" fill="url(#linearGradient13277)" d="m1 903h63v3h-63z"/>
        <path id="path14982" fill="url(#linearGradient13274)" d="m1 879h63v3h-63z"/>
        <path id="path14984" fill="url(#linearGradient13271)" d="m1 861h63v3h-63z"/>
        <path id="path14986" fill="url(#linearGradient13268)" d="m1 843h63v3h-63z"/>
        <path id="path14988" fill="url(#linearGradient13265)" d="m1 818.99h63v3h-63z"/>
        <path id="path14990" fill="#838383" d="m0 823h66v-1h-66z"/>
        <path id="path14992" fill="#838383" d="m0 847h66v-1h-66z"/>
        <path id="path14994" fill="#838383" d="m0 883h66v-1h-66z"/>
        <path id="path14996" fill="#838383" d="m0 907h66v-1h-66z"/>
        <path id="path14998" fill="#838383" d="m0 925h66v-1h-66z"/>
        <path id="path15000" fill="#838383" d="m0 865h66v-1h-66z"/>
        <g id="g15002" transform="translate(348,2472)">
          <path id="path15004" fill="url(#linearGradient11227)" d="m-348-1657h39l1 1v11l-3 3h-37z"/>
          <path id="path15006" d="m-348-1656h39v11h-39z"/>
          <path id="path15008" fill="url(#linearGradient11229)" d="m-348-1655h38v9h-38z"/>
          <path id="path15010" fill="url(#linearGradient11231)" d="m-348-1654h37v7h-37z"/>
        </g>
        <g id="g15012" transform="translate(348,2496)">
          <path id="path15014" fill="url(#linearGradient11227)" d="m-348-1657h39l1 1v11l-3 3h-37z"/>
          <path id="path15016" d="m-348-1656h39v11h-39z"/>
          <path id="path15018" fill="url(#linearGradient11229)" d="m-348-1655h38v9h-38z"/>
          <path id="path15020" fill="url(#linearGradient11231)" d="m-348-1654h37v7h-37z"/>
        </g>
        <g id="g15022" transform="translate(348,2532)">
          <path id="path15024" fill="url(#linearGradient11227)" d="m-348-1657h39l1 1v11l-3 3h-37z"/>
          <path id="path15026" d="m-348-1656h39v11h-39z"/>
          <path id="path15028" fill="url(#linearGradient11229)" d="m-348-1655h38v9h-38z"/>
          <path id="path15030" fill="url(#linearGradient11231)" d="m-348-1654h37v7h-37z"/>
        </g>
        <g id="g15032" transform="translate(348,2556)">
          <path id="path15034" fill="url(#linearGradient11227)" d="m-348-1657h39l1 1v11l-3 3h-37z"/>
          <path id="path15036" d="m-348-1656h39v11h-39z"/>
          <path id="path15038" fill="url(#linearGradient11253)" d="m-348-1655h38v9h-38z"/>
          <path id="path15040" fill="url(#linearGradient11255)" d="m-348-1654h37v7h-37z"/>
        </g>
        <path id="path15042" fill="url(#linearGradient13966)" d="m1 781h63v3h-63z"/>
        <path id="path15044" fill="#838383" d="m0 799h66v-1h-66z"/>
        <path id="path15046" fill="url(#linearGradient13972)" d="m1 795h63v3h-63z"/>
        <g id="g15048" transform="translate(348,2448)">
          <path id="path15050" fill="url(#linearGradient11227)" d="m-348-1657h39l1 1v11l-3 3h-37z"/>
          <path id="path15052" d="m-348-1656h39v11h-39z"/>
          <path id="path15054" fill="url(#linearGradient11229)" d="m-348-1655h38v9h-38z"/>
          <path id="path15056" fill="url(#linearGradient11231)" d="m-348-1654h37v7h-37z"/>
        </g>
      </g>
    </g>
    <g id="g15116" transform="translate(0,-493)">
      <g id="g15118">
        <path id="path15120" fill="url(#linearGradient13299)" d="m1 907h63v3h-63z"/>
        <path id="path15122" fill="#838383" d="m40 882.99h25v-1h-25z"/>
        <path id="path15124" fill="url(#linearGradient13295)" d="m1 883h63v3h-63z"/>
        <path id="path15126" fill="url(#linearGradient13292)" d="m1 865h63v3h-63z"/>
        <path id="path15128" fill="url(#linearGradient13289)" d="m1 847h63v3h-63z"/>
        <path id="path15130" fill="url(#linearGradient13286)" d="m1 823h63v3h-63z"/>
        <path id="path15132" fill="url(#linearGradient13283)" d="m1 799h63v3h-63z"/>
        <path id="path15134" fill="url(#linearGradient13280)" d="m1 921h63v3h-63z"/>
        <path id="path15136" fill="url(#linearGradient13277)" d="m1 903h63v3h-63z"/>
        <path id="path15138" fill="url(#linearGradient13274)" d="m1 879h63v3h-63z"/>
        <path id="path15140" fill="url(#linearGradient13271)" d="m1 861h63v3h-63z"/>
        <path id="path15142" fill="url(#linearGradient13268)" d="m1 843h63v3h-63z"/>
        <path id="path15144" fill="url(#linearGradient13265)" d="m1 818.99h63v3h-63z"/>
        <path id="path15146" fill="#838383" d="m0 823h66v-1h-66z"/>
        <path id="path15148" fill="#838383" d="m0 847h66v-1h-66z"/>
        <path id="path15150" fill="#838383" d="m0 883h66v-1h-66z"/>
        <path id="path15152" fill="#838383" d="m0 907h66v-1h-66z"/>
        <path id="path15154" fill="#838383" d="m0 925h66v-1h-66z"/>
        <path id="path15156" fill="#838383" d="m0 865h66v-1h-66z"/>
        <g id="g15158" transform="translate(348,2472)">
          <path id="path15160" fill="url(#linearGradient11227)" d="m-348-1657h39l1 1v11l-3 3h-37z"/>
          <path id="path15162" d="m-348-1656h39v11h-39z"/>
          <path id="path15164" fill="url(#linearGradient11229)" d="m-348-1655h38v9h-38z"/>
          <path id="path15166" fill="url(#linearGradient11231)" d="m-348-1654h37v7h-37z"/>
        </g>
        <g id="g15168" transform="translate(348,2496)">
          <path id="path15170" fill="url(#linearGradient11227)" d="m-348-1657h39l1 1v11l-3 3h-37z"/>
          <path id="path15172" d="m-348-1656h39v11h-39z"/>
          <path id="path15174" fill="url(#linearGradient11229)" d="m-348-1655h38v9h-38z"/>
          <path id="path15176" fill="url(#linearGradient11231)" d="m-348-1654h37v7h-37z"/>
        </g>
        <g id="g15178" transform="translate(348,2532)">
          <path id="path15180" fill="url(#linearGradient11227)" d="m-348-1657h39l1 1v11l-3 3h-37z"/>
          <path id="path15182" d="m-348-1656h39v11h-39z"/>
          <path id="path15184" fill="url(#linearGradient11229)" d="m-348-1655h38v9h-38z"/>
          <path id="path15186" fill="url(#linearGradient11231)" d="m-348-1654h37v7h-37z"/>
        </g>
        <g id="g15188" transform="translate(348,2556)">
          <path id="path15190" fill="url(#linearGradient11227)" d="m-348-1657h39l1 1v11l-3 3h-37z"/>
          <path id="path15192" d="m-348-1656h39v11h-39z"/>
          <path id="path15194" fill="url(#linearGradient11253)" d="m-348-1655h38v9h-38z"/>
          <path id="path15196" fill="url(#linearGradient11255)" d="m-348-1654h37v7h-37z"/>
        </g>
        <path id="path15198" fill="url(#linearGradient13966)" d="m1 781h63v3h-63z"/>
        <path id="path15200" fill="#838383" d="m0 799h66v-1h-66z"/>
        <path id="path15202" fill="url(#linearGradient13972)" d="m1 795h63v3h-63z"/>
        <g id="g15204" transform="translate(348,2448)">
          <path id="path15206" fill="url(#linearGradient11227)" d="m-348-1657h39l1 1v11l-3 3h-37z"/>
          <path id="path15208" d="m-348-1656h39v11h-39z"/>
          <path id="path15210" fill="url(#linearGradient11229)" d="m-348-1655h38v9h-38z"/>
          <path id="path15212" fill="url(#linearGradient11231)" d="m-348-1654h37v7h-37z"/>
        </g>
      </g>
    </g>
    <g id="g15272" transform="translate(0,-637)">
      <g id="g15274">
        <path id="path15276" fill="url(#linearGradient13299)" d="m1 907h63v3h-63z"/>
        <path id="path15278" fill="#838383" d="m40 882.99h25v-1h-25z"/>
        <path id="path15280" fill="url(#linearGradient13295)" d="m1 883h63v3h-63z"/>
        <path id="path15282" fill="url(#linearGradient13292)" d="m1 865h63v3h-63z"/>
        <path id="path15284" fill="url(#linearGradient13289)" d="m1 847h63v3h-63z"/>
        <path id="path15286" fill="url(#linearGradient13286)" d="m1 823h63v3h-63z"/>
        <path id="path15288" fill="url(#linearGradient13283)" d="m1 799h63v3h-63z"/>
        <path id="path15290" fill="url(#linearGradient13280)" d="m1 921h63v3h-63z"/>
        <path id="path15292" fill="url(#linearGradient13277)" d="m1 903h63v3h-63z"/>
        <path id="path15294" fill="url(#linearGradient13274)" d="m1 879h63v3h-63z"/>
        <path id="path15296" fill="url(#linearGradient13271)" d="m1 861h63v3h-63z"/>
        <path id="path15298" fill="url(#linearGradient13268)" d="m1 843h63v3h-63z"/>
        <path id="path15300" fill="url(#linearGradient13265)" d="m1 818.99h63v3h-63z"/>
        <path id="path15302" fill="#838383" d="m0 823h66v-1h-66z"/>
        <path id="path15304" fill="#838383" d="m0 847h66v-1h-66z"/>
        <path id="path15306" fill="#838383" d="m0 883h66v-1h-66z"/>
        <path id="path15308" fill="#838383" d="m0 907h66v-1h-66z"/>
        <path id="path15310" fill="#838383" d="m0 925h66v-1h-66z"/>
        <path id="path15312" fill="#838383" d="m0 865h66v-1h-66z"/>
        <g id="g15314" transform="translate(348,2472)">
          <path id="path15316" fill="url(#linearGradient11227)" d="m-348-1657h39l1 1v11l-3 3h-37z"/>
          <path id="path15318" d="m-348-1656h39v11h-39z"/>
          <path id="path15320" fill="url(#linearGradient11229)" d="m-348-1655h38v9h-38z"/>
          <path id="path15322" fill="url(#linearGradient11231)" d="m-348-1654h37v7h-37z"/>
        </g>
        <g id="g15324" transform="translate(348,2496)">
          <path id="path15326" fill="url(#linearGradient11227)" d="m-348-1657h39l1 1v11l-3 3h-37z"/>
          <path id="path15328" d="m-348-1656h39v11h-39z"/>
          <path id="path15330" fill="url(#linearGradient11229)" d="m-348-1655h38v9h-38z"/>
          <path id="path15332" fill="url(#linearGradient11231)" d="m-348-1654h37v7h-37z"/>
        </g>
        <g id="g15334" transform="translate(348,2532)">
          <path id="path15336" fill="url(#linearGradient11227)" d="m-348-1657h39l1 1v11l-3 3h-37z"/>
          <path id="path15338" d="m-348-1656h39v11h-39z"/>
          <path id="path15340" fill="url(#linearGradient11229)" d="m-348-1655h38v9h-38z"/>
          <path id="path15342" fill="url(#linearGradient11231)" d="m-348-1654h37v7h-37z"/>
        </g>
        <g id="g15344" transform="translate(348,2556)">
          <path id="path15346" fill="url(#linearGradient11227)" d="m-348-1657h39l1 1v11l-3 3h-37z"/>
          <path id="path15348" d="m-348-1656h39v11h-39z"/>
          <path id="path15350" fill="url(#linearGradient11253)" d="m-348-1655h38v9h-38z"/>
          <path id="path15352" fill="url(#linearGradient11255)" d="m-348-1654h37v7h-37z"/>
        </g>
        <path id="path15354" fill="url(#linearGradient13966)" d="m1 781h63v3h-63z"/>
        <path id="path15356" fill="#838383" d="m0 799h66v-1h-66z"/>
        <path id="path15358" fill="url(#linearGradient13972)" d="m1 795h63v3h-63z"/>
        <g id="g15360" transform="translate(348,2448)">
          <path id="path15362" fill="url(#linearGradient11227)" d="m-348-1657h39l1 1v11l-3 3h-37z"/>
          <path id="path15364" d="m-348-1656h39v11h-39z"/>
          <path id="path15366" fill="url(#linearGradient11229)" d="m-348-1655h38v9h-38z"/>
          <path id="path15368" fill="url(#linearGradient11231)" d="m-348-1654h37v7h-37z"/>
        </g>
      </g>
    </g>
    <g id="g15428" transform="translate(0,-781)">
      <g id="g15430">
        <path id="path15432" fill="url(#linearGradient13299)" d="m1 907h63v3h-63z"/>
        <path id="path15434" fill="#838383" d="m40 882.99h25v-1h-25z"/>
        <path id="path15436" fill="url(#linearGradient13295)" d="m1 883h63v3h-63z"/>
        <path id="path15438" fill="url(#linearGradient13292)" d="m1 865h63v3h-63z"/>
        <path id="path15440" fill="url(#linearGradient13289)" d="m1 847h63v3h-63z"/>
        <path id="path15442" fill="url(#linearGradient13286)" d="m1 823h63v3h-63z"/>
        <path id="path15444" fill="url(#linearGradient13283)" d="m1 799h63v3h-63z"/>
        <path id="path15446" fill="url(#linearGradient13280)" d="m1 921h63v3h-63z"/>
        <path id="path15448" fill="url(#linearGradient13277)" d="m1 903h63v3h-63z"/>
        <path id="path15450" fill="url(#linearGradient13274)" d="m1 879h63v3h-63z"/>
        <path id="path15452" fill="url(#linearGradient13271)" d="m1 861h63v3h-63z"/>
        <path id="path15454" fill="url(#linearGradient13268)" d="m1 843h63v3h-63z"/>
        <path id="path15456" fill="url(#linearGradient13265)" d="m1 818.99h63v3h-63z"/>
        <path id="path15458" fill="#838383" d="m0 823h66v-1h-66z"/>
        <path id="path15460" fill="#838383" d="m0 847h66v-1h-66z"/>
        <path id="path15462" fill="#838383" d="m0 883h66v-1h-66z"/>
        <path id="path15464" fill="#838383" d="m0 907h66v-1h-66z"/>
        <path id="path15466" fill="#838383" d="m0 925h66v-1h-66z"/>
        <path id="path15468" fill="#838383" d="m0 865h66v-1h-66z"/>
        <g id="g15470" transform="translate(348,2472)">
          <path id="path15472" fill="url(#linearGradient11227)" d="m-348-1657h39l1 1v11l-3 3h-37z"/>
          <path id="path15474" d="m-348-1656h39v11h-39z"/>
          <path id="path15476" fill="url(#linearGradient11229)" d="m-348-1655h38v9h-38z"/>
          <path id="path15478" fill="url(#linearGradient11231)" d="m-348-1654h37v7h-37z"/>
        </g>
        <g id="g15480" transform="translate(348,2496)">
          <path id="path15482" fill="url(#linearGradient11227)" d="m-348-1657h39l1 1v11l-3 3h-37z"/>
          <path id="path15484" d="m-348-1656h39v11h-39z"/>
          <path id="path15486" fill="url(#linearGradient11229)" d="m-348-1655h38v9h-38z"/>
          <path id="path15488" fill="url(#linearGradient11231)" d="m-348-1654h37v7h-37z"/>
        </g>
        <g id="g15490" transform="translate(348,2532)">
          <path id="path15492" fill="url(#linearGradient11227)" d="m-348-1657h39l1 1v11l-3 3h-37z"/>
          <path id="path15494" d="m-348-1656h39v11h-39z"/>
          <path id="path15496" fill="url(#linearGradient11229)" d="m-348-1655h38v9h-38z"/>
          <path id="path15498" fill="url(#linearGradient11231)" d="m-348-1654h37v7h-37z"/>
        </g>
        <g id="g15500" transform="translate(348,2556)">
          <path id="path15502" fill="url(#linearGradient11227)" d="m-348-1657h39l1 1v11l-3 3h-37z"/>
          <path id="path15504" d="m-348-1656h39v11h-39z"/>
          <path id="path15506" fill="url(#linearGradient11253)" d="m-348-1655h38v9h-38z"/>
          <path id="path15508" fill="url(#linearGradient11255)" d="m-348-1654h37v7h-37z"/>
        </g>
        <path id="path15510" fill="url(#linearGradient13966)" d="m1 781h63v3h-63z"/>
        <path id="path15512" fill="#838383" d="m0 799h66v-1h-66z"/>
        <path id="path15514" fill="url(#linearGradient13972)" d="m1 795h63v3h-63z"/>
        <g id="g15516" transform="translate(348,2448)">
          <path id="path15518" fill="url(#linearGradient11227)" d="m-348-1657h39l1 1v11l-3 3h-37z"/>
          <path id="path15520" d="m-348-1656h39v11h-39z"/>
          <path id="path15522" fill="url(#linearGradient11229)" d="m-348-1655h38v9h-38z"/>
          <path id="path15524" fill="url(#linearGradient11231)" d="m-348-1654h37v7h-37z"/>
        </g>
      </g>
    </g>
    <path id="path16979" style="block-progression:tb;color:#000000;text-transform:none;text-indent:0" d="m60.8 855c-0.000004-0.66262-0.07071-1.2869-0.21212-1.8727-0.21414-0.88484-0.54344-1.3273-0.98788-1.3273-0.44041 0.00001-0.76768 0.44445-0.98182 1.3333-0.14546 0.59799-0.21818 1.2202-0.21818 1.8667-0.000002 0.65859 0.0707 1.2828 0.21212 1.8727 0.21414 0.88485 0.54343 1.3273 0.98788 1.3273 0.44444 0 0.77373-0.44242 0.98788-1.3273 0.14141-0.5899 0.21212-1.2141 0.21212-1.8727zm0.8 0c-0.000005 0.95354-0.11718 1.7778-0.35152 2.4727-0.343 1.02-0.892 1.53-1.648 1.53s-1.305-0.51-1.648-1.52c-0.235-0.7-0.352-1.52-0.352-2.48-0.000001-0.95757 0.11717-1.7838 0.35152-2.4788 0.34343-1.0141 0.89293-1.5212 1.6485-1.5212 0.75555 0.00001 1.305 0.5091 1.6485 1.5273 0.23434 0.69496 0.35151 1.5192 0.35152 2.4727zm-6-4c0.26666 0.00001 0.4 0.13334 0.4 0.4-0.000005 0.26667-0.13334 0.40001-0.4 0.4h-1.6c-0.33536 0.00001-0.61919 0.11718-0.85152 0.35152-0.23232 0.23435-0.34849 0.51717-0.34848 0.84848v4c-0.000002 0.33131 0.11717 0.61414 0.35152 0.84848 0.23434 0.23435 0.51717 0.35152 0.84848 0.35152h1.6c0.26666 0 0.4 0.13333 0.4 0.4-0.000005 0.26667-0.13334 0.4-0.4 0.4h-1.6c-0.55354 0-1.0253-0.19495-1.4152-0.58485-0.39-0.39-0.585-0.87-0.585-1.42v-4c-0.000001-0.55353 0.19495-1.0252 0.58485-1.4152 0.3899-0.38989 0.86161-0.58484 1.4152-0.58485z"/>
    <path id="path16987" style="block-progression:tb;color:#000000;text-transform:none;text-indent:0" d="m59.2 708.36-0.92121 0.92121c-0.07677 0.0768-0.1697 0.11516-0.27879 0.11515-0.26667 0.00001-0.4-0.13333-0.4-0.4-0.000001-0.10908 0.03838-0.20201 0.11515-0.27879l1.5636-1.5636c0.10505-0.10505 0.21212-0.15757 0.32121-0.15758 0.26666 0.00001 0.4 0.13334 0.4 0.4v7.2c-0.000004 0.26667-0.13334 0.4-0.4 0.4-0.26667 0-0.4-0.13333-0.4-0.4zm-3.6-1.3636c0.26666 0.00001 0.4 0.13334 0.4 0.4-0.000005 0.26667-0.13334 0.40001-0.4 0.4h-1.6c-0.33536 0.00001-0.61919 0.11718-0.85152 0.35152-0.23232 0.23435-0.34849 0.51717-0.34848 0.84848v4c-0.000002 0.33131 0.11717 0.61414 0.35152 0.84848 0.23434 0.23435 0.51717 0.35152 0.84848 0.35152h1.6c0.26666 0 0.4 0.13333 0.4 0.4-0.000005 0.26667-0.13334 0.4-0.4 0.4h-1.6c-0.55354 0-1.0253-0.19495-1.4152-0.58485-0.39-0.39-0.585-0.87-0.585-1.42v-4c-0.000001-0.55353 0.19495-1.0252 0.58485-1.4152 0.3899-0.38989 0.86161-0.58484 1.4152-0.58485z"/>
    <path id="path16995" style="block-progression:tb;color:#000000;text-transform:none;text-indent:0" d="m59.6 563c0.55353 0.00001 1.0252 0.19496 1.4152 0.58485 0.38989 0.3899 0.58484 0.86162 0.58485 1.4152-0.000005 0.3798-0.12122 0.76364-0.36364 1.1515l-2.5212 4.0485h2.4848c0.26666 0 0.4 0.13333 0.4 0.4-0.000005 0.26667-0.13334 0.4-0.4 0.4h-3.2c-0.26667 0-0.4-0.13333-0.4-0.4-0.000001-0.0808 0.02222-0.15758 0.06667-0.2303l2.9333-4.7091c0.13333-0.21414 0.2-0.43434 0.2-0.66061-0.000004-0.33131-0.11718-0.61413-0.35152-0.84848-0.23435-0.23434-0.51717-0.35151-0.84848-0.35152-0.45253 0.00001-0.87071 0.33536-1.2545 1.0061-0.07273 0.1293-0.18788 0.19395-0.34545 0.19394-0.26667 0.00001-0.4-0.13333-0.4-0.4-0.000001-0.0606 0.01212-0.11514 0.03636-0.16364 0.49697-0.95756 1.1515-1.4364 1.9636-1.4364zm-4 0c0.26666 0.00001 0.4 0.13334 0.4 0.4-0.000005 0.26667-0.13334 0.40001-0.4 0.4h-1.6c-0.33536 0.00001-0.61919 0.11718-0.85152 0.35152-0.23232 0.23435-0.34849 0.51717-0.34848 0.84848v4c-0.000002 0.33131 0.11717 0.61414 0.35152 0.84848 0.23434 0.23435 0.51717 0.35152 0.84848 0.35152h1.6c0.26666 0 0.4 0.13333 0.4 0.4-0.000005 0.26667-0.13334 0.4-0.4 0.4h-1.6c-0.55354 0-1.0253-0.19495-1.4152-0.58485-0.39-0.39-0.585-0.87-0.585-1.42v-4c-0.000001-0.55353 0.19495-1.0252 0.58485-1.4152 0.3899-0.38989 0.86161-0.58484 1.4152-0.58485z"/>
    <path id="path17003" style="block-progression:tb;color:#000000;text-transform:none;text-indent:0" d="m59.6 423h-0.8c-0.26667 0-0.4-0.13333-0.4-0.4-0.000002-0.26666 0.13333-0.4 0.4-0.4h0.8c0.33535 0 0.61919-0.11616 0.85152-0.34848 0.23232-0.23232 0.34848-0.51616 0.34848-0.85152-0.000004-0.33131-0.11718-0.61413-0.35152-0.84848-0.23435-0.23434-0.51717-0.35151-0.84848-0.35152h-1.6c-0.26667 0.00001-0.4-0.13333-0.4-0.4-0.000001-0.26666 0.13333-0.39999 0.4-0.4h1.6c0.55353 0.00001 1.0252 0.19597 1.4152 0.58788 0.38989 0.39193 0.58484 0.86263 0.58485 1.4121-0.000005 0.66263-0.26667 1.196-0.8 1.6 0.53333 0.40404 0.8 0.93738 0.8 1.6v0.8c-0.000005 0.55354-0.19596 1.0252-0.58788 1.4152-0.392 0.39-0.863 0.58-1.412 0.58h-1.6c-0.26667 0-0.4-0.13333-0.4-0.4-0.000001-0.26667 0.13333-0.4 0.4-0.4h1.6c0.33535 0 0.61919-0.11616 0.85152-0.34848 0.23232-0.23233 0.34848-0.51616 0.34848-0.85152v-0.8c-0.000004-0.33131-0.11718-0.61414-0.35152-0.84848-0.234-0.23-0.517-0.35-0.848-0.35zm-4-4c0.26666 0.00001 0.4 0.13334 0.4 0.4-0.000005 0.26667-0.13334 0.40001-0.4 0.4h-1.6c-0.33536 0.00001-0.61919 0.11718-0.85152 0.35152-0.23232 0.23435-0.34849 0.51717-0.34848 0.84848v4c-0.000002 0.33131 0.11717 0.61414 0.35152 0.84848 0.23434 0.23435 0.51717 0.35152 0.84848 0.35152h1.6c0.26666 0 0.4 0.13333 0.4 0.4-0.000005 0.26667-0.13334 0.4-0.4 0.4h-1.6c-0.55354 0-1.0253-0.19495-1.4152-0.58485-0.39-0.39-0.585-0.87-0.585-1.42v-4c-0.000001-0.55353 0.19495-1.0252 0.58485-1.4152 0.3899-0.38989 0.86161-0.58484 1.4152-0.58485z"/>
    <path id="path17011" style="block-progression:tb;color:#000000;text-transform:none;text-indent:0" d="m57.6 281c-0.000001-0.0444 0.004-0.0808 0.01212-0.10909l1.6-5.6c0.057-0.19 0.186-0.29 0.388-0.29 0.26666 0.00001 0.4 0.13334 0.4 0.4-0.000004 0.0364-0.0061 0.0748-0.01818 0.11515l-1.4545 5.0848h1.8727v-1.2c-0.000004-0.26666 0.13333-0.4 0.4-0.4 0.26666 0 0.4 0.13334 0.4 0.4v1.2h0.8c0.26666 0 0.39999 0.13334 0.4 0.4-0.000005 0.26667-0.13334 0.4-0.4 0.4h-0.8v1.2c-0.000005 0.26667-0.13334 0.4-0.4 0.4-0.26667 0-0.4-0.13333-0.4-0.4v-1.2h-2.4c-0.26667 0-0.4-0.13333-0.4-0.4zm-2-6c0.26666 0.00001 0.4 0.13334 0.4 0.4-0.000005 0.26667-0.13334 0.40001-0.4 0.4h-1.6c-0.33536 0.00001-0.61919 0.11718-0.85152 0.35152-0.23232 0.23435-0.34849 0.51717-0.34848 0.84848v4c-0.000002 0.33131 0.11717 0.61414 0.35152 0.84848 0.23434 0.23435 0.51717 0.35152 0.84848 0.35152h1.6c0.26666 0 0.4 0.13333 0.4 0.4-0.000005 0.26667-0.13334 0.4-0.4 0.4h-1.6c-0.55354 0-1.0253-0.19495-1.4152-0.58485-0.39-0.39-0.585-0.87-0.585-1.42v-4c-0.000001-0.55353 0.19495-1.0252 0.58485-1.4152 0.3899-0.38989 0.86161-0.58484 1.4152-0.58485z"/>
    <path id="path17019" style="block-progression:tb;color:#000000;text-transform:none;text-indent:0" d="m57.6 134.6v-3.2c-0.000001-0.26666 0.13333-0.39999 0.4-0.4h2.8c0.26666 0.00001 0.4 0.13334 0.4 0.4-0.000005 0.26667-0.13334 0.40001-0.4 0.4h-2.4v2.4h1.2c0.55353 0 1.0252 0.19596 1.4152 0.58788 0.38989 0.39192 0.58484 0.86263 0.58485 1.4121v0.8c-0.000005 0.55354-0.19596 1.0252-0.58788 1.4152-0.392 0.39-0.863 0.58-1.412 0.58h-1.6c-0.26667 0-0.4-0.13333-0.4-0.4-0.000001-0.26667 0.13333-0.4 0.4-0.4h1.6c0.33535 0 0.61919-0.11616 0.85152-0.34848 0.23232-0.23233 0.34848-0.51616 0.34848-0.85152v-0.8c-0.000004-0.33131-0.11718-0.61414-0.35152-0.84848-0.234-0.23-0.517-0.35-0.848-0.35h-1.6c-0.26667 0-0.4-0.13333-0.4-0.4zm-2-3.6c0.26666 0.00001 0.4 0.13334 0.4 0.4-0.000005 0.26667-0.13334 0.40001-0.4 0.4h-1.6c-0.33536 0.00001-0.61919 0.11718-0.85152 0.35152-0.23232 0.23435-0.34849 0.51717-0.34848 0.84848v4c-0.000002 0.33131 0.11717 0.61414 0.35152 0.84848 0.23434 0.23435 0.51717 0.35152 0.84848 0.35152h1.6c0.26666 0 0.4 0.13333 0.4 0.4-0.000005 0.26667-0.13334 0.4-0.4 0.4h-1.6c-0.55354 0-1.0253-0.19495-1.4152-0.58485-0.39-0.39-0.585-0.87-0.585-1.42v-4c-0.000001-0.55353 0.19495-1.0252 0.58485-1.4152 0.3899-0.38989 0.86161-0.58484 1.4152-0.58485z"/>
  </g>
  <g id="g16179" transform="translate(0,72)">
    <path id="path16152" fill="#007f00" d="m300 180h11v11h-11z"/>
    <path id="path16154" fill="#004a00" d="m310 180v10h-10v1h11v-11z"/>
    <path id="path16159" fill="#5f5" d="m307 182h3v7h-3z"/>
    <path id="path16166" fill="#00d700" d="m300 180v10h1v-9h9v-1z"/>
  </g>
  <g id="g16185" transform="translate(12 84.145)">
    <path id="path16187" fill="#007f00" d="m300 180h11v11h-11z"/>
    <path id="path16189" fill="#004a00" d="m310 180v10h-10v1h11v-11z"/>
    <path id="path16191" fill="#5f5" d="m307 182h3v7h-3z"/>
    <path id="path16193" fill="#00d700" d="m300 180v10h1v-9h9v-1z"/>
  </g>
  <g id="g16195" transform="translate(24,72)">
    <path id="path16197" fill="#007f00" d="m300 180h11v11h-11z"/>
    <path id="path16199" fill="#004a00" d="m310 180v10h-10v1h11v-11z"/>
    <path id="path16201" fill="#5f5" d="m307 182h3v7h-3z"/>
    <path id="path16203" fill="#00d700" d="m300 180v10h1v-9h9v-1z"/>
  </g>
  <g id="g16205" transform="translate(36,132)">
    <path id="path16207" fill="#007f00" d="m300 180h11v11h-11z"/>
    <path id="path16209" fill="#004a00" d="m310 180v10h-10v1h11v-11z"/>
    <path id="path16211" fill="#5f5" d="m307 182h3v7h-3z"/>
    <path id="path16213" fill="#00d700" d="m300 180v10h1v-9h9v-1z"/>
  </g>
  <g id="g16215" transform="translate(48,72)">
    <path id="path16217" fill="#007f00" d="m300 180h11v11h-11z"/>
    <path id="path16219" fill="#004a00" d="m310 180v10h-10v1h11v-11z"/>
    <path id="path16221" fill="#5f5" d="m307 182h3v7h-3z"/>
    <path id="path16223" fill="#00d700" d="m300 180v10h1v-9h9v-1z"/>
  </g>
  <g id="g16225" transform="translate(60,132)">
    <path id="path16227" fill="#007f00" d="m300 180h11v11h-11z"/>
    <path id="path16229" fill="#004a00" d="m310 180v10h-10v1h11v-11z"/>
    <path id="path16231" fill="#5f5" d="m307 182h3v7h-3z"/>
    <path id="path16233" fill="#00d700" d="m300 180v10h1v-9h9v-1z"/>
  </g>
  <g id="g16235" transform="translate(72,48)">
    <path id="path16237" fill="#007f00" d="m300 180h11v11h-11z"/>
    <path id="path16239" fill="#004a00" d="m310 180v10h-10v1h11v-11z"/>
    <path id="path16241" fill="#5f5" d="m307 182h3v7h-3z"/>
    <path id="path16243" fill="#00d700" d="m300 180v10h1v-9h9v-1z"/>
  </g>
  <g id="g16245" transform="translate(84,132)">
    <path id="path16247" fill="#007f00" d="m300 180h11v11h-11z"/>
    <path id="path16249" fill="#004a00" d="m310 180v10h-10v1h11v-11z"/>
    <path id="path16251" fill="#5f5" d="m307 182h3v7h-3z"/>
    <path id="path16253" fill="#00d700" d="m300 180v10h1v-9h9v-1z"/>
  </g>
  <g id="g16255" transform="translate(96,36)">
    <path id="path16257" fill="#007f00" d="m300 180h11v11h-11z"/>
    <path id="path16259" fill="#004a00" d="m310 180v10h-10v1h11v-11z"/>
    <path id="path16261" fill="#5f5" d="m307 182h3v7h-3z"/>
    <path id="path16263" fill="#00d700" d="m300 180v10h1v-9h9v-1z"/>
  </g>
  <g id="g16265" transform="translate(108,48)">
    <path id="path16267" fill="#007f00" d="m300 180h11v11h-11z"/>
    <path id="path16269" fill="#004a00" d="m310 180v10h-10v1h11v-11z"/>
    <path id="path16271" fill="#5f5" d="m307 182h3v7h-3z"/>
    <path id="path16273" fill="#00d700" d="m300 180v10h1v-9h9v-1z"/>
  </g>
  <g id="g16275" transform="translate(120,36)">
    <path id="path16277" fill="#007f00" d="m300 180h11v11h-11z"/>
    <path id="path16279" fill="#004a00" d="m310 180v10h-10v1h11v-11z"/>
    <path id="path16281" fill="#5f5" d="m307 182h3v7h-3z"/>
    <path id="path16283" fill="#00d700" d="m300 180v10h1v-9h9v-1z"/>
  </g>
  <g id="g16285" transform="translate(132,72)">
    <path id="path16287" fill="#007f00" d="m300 180h11v11h-11z"/>
    <path id="path16289" fill="#004a00" d="m310 180v10h-10v1h11v-11z"/>
    <path id="path16291" fill="#5f5" d="m307 182h3v7h-3z"/>
    <path id="path16293" fill="#00d700" d="m300 180v10h1v-9h9v-1z"/>
  </g>
  <g id="g16295" transform="translate(96,-72)">
    <path id="path16297" fill="#007f00" d="m300 180h11v11h-11z"/>
    <path id="path16299" fill="#004a00" d="m310 180v10h-10v1h11v-11z"/>
    <path id="path16301" fill="#5f5" d="m307 182h3v7h-3z"/>
    <path id="path16303" fill="#00d700" d="m300 180v10h1v-9h9v-1z"/>
  </g>
  <g id="g16305" transform="translate(108,-60)">
    <path id="path16307" fill="#007f00" d="m300 180h11v11h-11z"/>
    <path id="path16309" fill="#004a00" d="m310 180v10h-10v1h11v-11z"/>
    <path id="path16311" fill="#5f5" d="m307 182h3v7h-3z"/>
    <path id="path16313" fill="#00d700" d="m300 180v10h1v-9h9v-1z"/>
  </g>
  <g id="g16315" transform="translate(120,-72)">
    <path id="path16317" fill="#007f00" d="m300 180h11v11h-11z"/>
    <path id="path16319" fill="#004a00" d="m310 180v10h-10v1h11v-11z"/>
    <path id="path16321" fill="#5f5" d="m307 182h3v7h-3z"/>
    <path id="path16323" fill="#00d700" d="m300 180v10h1v-9h9v-1z"/>
  </g>
  <g id="g16325" transform="translate(132,-12)">
    <path id="path16327" fill="#007f00" d="m300 180h11v11h-11z"/>
    <path id="path16329" fill="#004a00" d="m310 180v10h-10v1h11v-11z"/>
    <path id="path16331" fill="#5f5" d="m307 182h3v7h-3z"/>
    <path id="path16333" fill="#00d700" d="m300 180v10h1v-9h9v-1z"/>
  </g>
  <g id="g16797">
    <path id="rect16335" fill="#3f3f3f" d="m311 0h1v864h-1z"/>
    <path id="path16338" fill="#3f3f3f" d="m299 0h1v864h-1z"/>
    <path id="path16340" fill="#3f3f3f" d="m323 0h1v864h-1z"/>
    <path id="path16342" fill="#3f3f3f" d="m335 0h1v864h-1z"/>
    <path id="path16352" fill="#3f3f3f" d="m359 0h1v864h-1z"/>
    <path id="path16354" fill="#5f5f5f" d="m347 0h1v864h-1z"/>
    <path id="path16356" fill="#3f3f3f" d="m371 0h1v864h-1z"/>
    <path id="path16358" fill="#3f3f3f" d="m383 0h1v864h-1z"/>
    <path id="path16380" fill="#3f3f3f" d="m407 0h1v864h-1z"/>
    <path id="path16382" fill="#5f5f5f" d="m395 0h1v864h-1z"/>
    <path id="path16384" fill="#3f3f3f" d="m419 0h1v864h-1z"/>
    <path id="path16386" fill="#3f3f3f" d="m431 0h1v864h-1z"/>
    <path id="path16388" fill="#3f3f3f" d="m455 0h1v864h-1z"/>
    <path id="path16390" fill="#5f5f5f" d="m443 0h1v864h-1z"/>
    <path id="path16392" fill="#3f3f3f" d="m467 0h1v864h-1z"/>
    <path id="path16394" fill="#3f3f3f" d="m479 0h1v864h-1z"/>
    <path id="path16434" fill="#7f7f7f" d="m491 0h1v864h-1z"/>
  </g>
  <g id="g16506" transform="translate(144,-72)">
    <path id="path16508" fill="#007f00" d="m300 180h11v11h-11z"/>
    <path id="path16510" fill="#004a00" d="m310 180v10h-10v1h11v-11z"/>
    <path id="path16512" fill="#5f5" d="m307 182h3v7h-3z"/>
    <path id="path16514" fill="#00d700" d="m300 180v10h1v-9h9v-1z"/>
  </g>
  <g id="g16536" transform="translate(156,-12)">
    <path id="path16538" fill="#007f00" d="m300 180h11v11h-11z"/>
    <path id="path16540" fill="#004a00" d="m310 180v10h-10v1h11v-11z"/>
    <path id="path16542" fill="#5f5" d="m307 182h3v7h-3z"/>
    <path id="path16544" fill="#00d700" d="m300 180v10h1v-9h9v-1z"/>
  </g>
  <g id="g16546" transform="translate(168,-96)">
    <path id="path16548" fill="#007f00" d="m300 180h11v11h-11z"/>
    <path id="path16550" fill="#004a00" d="m310 180v10h-10v1h11v-11z"/>
    <path id="path16552" fill="#5f5" d="m307 182h3v7h-3z"/>
    <path id="path16554" fill="#00d700" d="m300 180v10h1v-9h9v-1z"/>
  </g>
  <g id="g16556" transform="translate(180,-12)">
    <path id="path16558" fill="#007f00" d="m300 180h11v11h-11z"/>
    <path id="path16560" fill="#004a00" d="m310 180v10h-10v1h11v-11z"/>
    <path id="path16562" fill="#5f5" d="m307 182h3v7h-3z"/>
    <path id="path16564" fill="#00d700" d="m300 180v10h1v-9h9v-1z"/>
  </g>
  <g id="g16566" transform="translate(144,36)">
    <path id="path16568" fill="#007f00" d="m300 180h11v11h-11z"/>
    <path id="path16570" fill="#004a00" d="m310 180v10h-10v1h11v-11z"/>
    <path id="path16572" fill="#5f5" d="m307 182h3v7h-3z"/>
    <path id="path16574" fill="#00d700" d="m300 180v10h1v-9h9v-1z"/>
  </g>
  <g id="g16576" transform="translate(156,72)">
    <path id="path16578" fill="#007f00" d="m300 180h11v11h-11z"/>
    <path id="path16580" fill="#004a00" d="m310 180v10h-10v1h11v-11z"/>
    <path id="path16582" fill="#5f5" d="m307 182h3v7h-3z"/>
    <path id="path16584" fill="#00d700" d="m300 180v10h1v-9h9v-1z"/>
  </g>
  <g id="g16586" transform="translate(168,12)">
    <path id="path16588" fill="#007f00" d="m300 180h11v11h-11z"/>
    <path id="path16590" fill="#004a00" d="m310 180v10h-10v1h11v-11z"/>
    <path id="path16592" fill="#5f5" d="m307 182h3v7h-3z"/>
    <path id="path16594" fill="#00d700" d="m300 180v10h1v-9h9v-1z"/>
  </g>
  <g id="g16596" transform="translate(180,72)">
    <path id="path16598" fill="#007f00" d="m300 180h11v11h-11z"/>
    <path id="path16600" fill="#004a00" d="m310 180v10h-10v1h11v-11z"/>
    <path id="path16602" fill="#5f5" d="m307 182h3v7h-3z"/>
    <path id="path16604" fill="#00d700" d="m300 180v10h1v-9h9v-1z"/>
  </g>
  <g id="g16617" transform="translate(192,-108)">
    <path id="path16619" fill="#007f00" d="m300 180h11v11h-11z"/>
    <path id="path16621" fill="#004a00" d="m310 180v10h-10v1h11v-11z"/>
    <path id="path16623" fill="#5f5" d="m307 182h3v7h-3z"/>
    <path id="path16625" fill="#00d700" d="m300 180v10h1v-9h9v-1z"/>
  </g>
  <g id="g16627" transform="translate(204,-96)">
    <path id="path16629" fill="#007f00" d="m300 180h11v11h-11z"/>
    <path id="path16631" fill="#004a00" d="m310 180v10h-10v1h11v-11z"/>
    <path id="path16633" fill="#5f5" d="m307 182h3v7h-3z"/>
    <path id="path16635" fill="#00d700" d="m300 180v10h1v-9h9v-1z"/>
  </g>
  <g id="g16637" transform="translate(216,-108)">
    <path id="path16639" fill="#007f00" d="m300 180h11v11h-11z"/>
    <path id="path16641" fill="#004a00" d="m310 180v10h-10v1h11v-11z"/>
    <path id="path16643" fill="#5f5" d="m307 182h3v7h-3z"/>
    <path id="path16645" fill="#00d700" d="m300 180v10h1v-9h9v-1z"/>
  </g>
  <g id="g16647" transform="translate(228,-72)">
    <path id="path16649" fill="#007f00" d="m300 180h11v11h-11z"/>
    <path id="path16651" fill="#004a00" d="m310 180v10h-10v1h11v-11z"/>
    <path id="path16653" fill="#5f5" d="m307 182h3v7h-3z"/>
    <path id="path16655" fill="#00d700" d="m300 180v10h1v-9h9v-1z"/>
  </g>
  <g id="g16657" transform="translate(192,-12)">
    <path id="path16659" fill="#007f00" d="m300 180h11v11h-11z"/>
    <path id="path16661" fill="#004a00" d="m310 180v10h-10v1h11v-11z"/>
    <path id="path16663" fill="#5f5" d="m307 182h3v7h-3z"/>
    <path id="path16665" fill="#00d700" d="m300 180v10h1v-9h9v-1z"/>
  </g>
  <g id="g16667" transform="translate(204,12)">
    <path id="path16669" fill="#007f00" d="m300 180h11v11h-11z"/>
    <path id="path16671" fill="#004a00" d="m310 180v10h-10v1h11v-11z"/>
    <path id="path16673" fill="#5f5" d="m307 182h3v7h-3z"/>
    <path id="path16675" fill="#00d700" d="m300 180v10h1v-9h9v-1z"/>
  </g>
  <g id="g16677" transform="translate(216,-12)">
    <path id="path16679" fill="#007f00" d="m300 180h11v11h-11z"/>
    <path id="path16681" fill="#004a00" d="m310 180v10h-10v1h11v-11z"/>
    <path id="path16683" fill="#5f5" d="m307 182h3v7h-3z"/>
    <path id="path16685" fill="#00d700" d="m300 180v10h1v-9h9v-1z"/>
  </g>
  <g id="g16687" transform="translate(228,36)">
    <path id="path16689" fill="#007f00" d="m300 180h11v11h-11z"/>
    <path id="path16691" fill="#004a00" d="m310 180v10h-10v1h11v-11z"/>
    <path id="path16693" fill="#5f5" d="m307 182h3v7h-3z"/>
    <path id="path16695" fill="#00d700" d="m300 180v10h1v-9h9v-1z"/>
  </g>
  <g id="g16697" transform="translate(240,-108)">
    <path id="path16699" fill="#007f00" d="m300 180h11v11h-11z"/>
    <path id="path16701" fill="#004a00" d="m310 180v10h-10v1h11v-11z"/>
    <path id="path16703" fill="#5f5" d="m307 182h3v7h-3z"/>
    <path id="path16705" fill="#00d700" d="m300 180v10h1v-9h9v-1z"/>
  </g>
  <g id="g16707" transform="translate(252,-72)">
    <path id="path16709" fill="#007f00" d="m300 180h11v11h-11z"/>
    <path id="path16711" fill="#004a00" d="m310 180v10h-10v1h11v-11z"/>
    <path id="path16713" fill="#5f5" d="m307 182h3v7h-3z"/>
    <path id="path16715" fill="#00d700" d="m300 180v10h1v-9h9v-1z"/>
  </g>
  <g id="g16717" transform="translate(264,-132)">
    <path id="path16719" fill="#007f00" d="m300 180h11v11h-11z"/>
    <path id="path16721" fill="#004a00" d="m310 180v10h-10v1h11v-11z"/>
    <path id="path16723" fill="#5f5" d="m307 182h3v7h-3z"/>
    <path id="path16725" fill="#00d700" d="m300 180v10h1v-9h9v-1z"/>
  </g>
  <g id="g16727" transform="translate(276,-72)">
    <path id="path16729" fill="#007f00" d="m300 180h11v11h-11z"/>
    <path id="path16731" fill="#004a00" d="m310 180v10h-10v1h11v-11z"/>
    <path id="path16733" fill="#5f5" d="m307 182h3v7h-3z"/>
    <path id="path16735" fill="#00d700" d="m300 180v10h1v-9h9v-1z"/>
  </g>
  <g id="g16737" transform="translate(240,-12)">
    <path id="path16739" fill="#007f00" d="m300 180h11v11h-11z"/>
    <path id="path16741" fill="#004a00" d="m310 180v10h-10v1h11v-11z"/>
    <path id="path16743" fill="#5f5" d="m307 182h3v7h-3z"/>
    <path id="path16745" fill="#00d700" d="m300 180v10h1v-9h9v-1z"/>
  </g>
  <g id="g16747" transform="translate(252,36)">
    <path id="path16749" fill="#007f00" d="m300 180h11v11h-11z"/>
    <path id="path16751" fill="#004a00" d="m310 180v10h-10v1h11v-11z"/>
    <path id="path16753" fill="#5f5" d="m307 182h3v7h-3z"/>
    <path id="path16755" fill="#00d700" d="m300 180v10h1v-9h9v-1z"/>
  </g>
  <g id="g16757" transform="translate(264,-24)">
    <path id="path16759" fill="#007f00" d="m300 180h11v11h-11z"/>
    <path id="path16761" fill="#004a00" d="m310 180v10h-10v1h11v-11z"/>
    <path id="path16763" fill="#5f5" d="m307 182h3v7h-3z"/>
    <path id="path16765" fill="#00d700" d="m300 180v10h1v-9h9v-1z"/>
  </g>
  <g id="g16767" transform="translate(276,36)">
    <path id="path16769" fill="#007f00" d="m300 180h11v11h-11z"/>
    <path id="path16771" fill="#004a00" d="m310 180v10h-10v1h11v-11z"/>
    <path id="path16773" fill="#5f5" d="m307 182h3v7h-3z"/>
    <path id="path16775" fill="#00d700" d="m300 180v10h1v-9h9v-1z"/>
  </g>
  <g id="g16779">
    <path id="path16432" fill="#3f3f3f" d="m503 0h1v864h-1z"/>
    <path id="path16436" fill="#3f3f3f" d="m515 0h1v864h-1z"/>
    <path id="path16438" fill="#3f3f3f" d="m527 0h1v864h-1z"/>
    <path id="path16440" fill="#3f3f3f" d="m551 0h1v864h-1z"/>
    <path id="path16442" fill="#5f5f5f" d="m539 0h1v864h-1z"/>
    <path id="path16444" fill="#3f3f3f" d="m563 0h1v864h-1z"/>
    <path id="path16446" fill="#3f3f3f" d="m575 0h1v864h-1z"/>
    <path id="path16448" fill="#3f3f3f" d="m599 0h1v864h-1z"/>
    <path id="path16450" fill="#5f5f5f" d="m587 0h1v864h-1z"/>
    <path id="path16452" fill="#3f3f3f" d="m611 0h1v864h-1z"/>
    <path id="path16454" fill="#3f3f3f" d="m623 0h1v864h-1z"/>
    <path id="path16456" fill="#3f3f3f" d="m647 0h1v864h-1z"/>
    <path id="path16458" fill="#5f5f5f" d="m635 0h1v864h-1z"/>
    <path id="path16460" fill="#3f3f3f" d="m659 0h1v864h-1z"/>
    <path id="path16462" fill="#3f3f3f" d="m671 0h1v864h-1z"/>
    <path id="path16777" fill="#7f7f7f" d="m683 0h1v864h-1z"/>
  </g>
  <g id="g16816" transform="translate(288,-96)">
    <path id="path16818" fill="#007f00" d="m300 180h11v11h-11z"/>
    <path id="path16820" fill="#004a00" d="m310 180v10h-10v1h11v-11z"/>
    <path id="path16822" fill="#5f5" d="m307 182h3v7h-3z"/>
    <path id="path16824" fill="#00d700" d="m300 180v10h1v-9h9v-1z"/>
  </g>
  <g id="g16826" transform="translate(300,-72)">
    <path id="path16828" fill="#007f00" d="m300 180h11v11h-11z"/>
    <path id="path16830" fill="#004a00" d="m310 180v10h-10v1h11v-11z"/>
    <path id="path16832" fill="#5f5" d="m307 182h3v7h-3z"/>
    <path id="path16834" fill="#00d700" d="m300 180v10h1v-9h9v-1z"/>
  </g>
  <g id="g16836" transform="translate(312,-96)">
    <path id="path16838" fill="#007f00" d="m300 180h11v11h-11z"/>
    <path id="path16840" fill="#004a00" d="m310 180v10h-10v1h11v-11z"/>
    <path id="path16842" fill="#5f5" d="m307 182h3v7h-3z"/>
    <path id="path16844" fill="#00d700" d="m300 180v10h1v-9h9v-1z"/>
  </g>
  <g id="g16846" transform="translate(324,-60)">
    <path id="path16848" fill="#007f00" d="m300 180h11v11h-11z"/>
    <path id="path16850" fill="#004a00" d="m310 180v10h-10v1h11v-11z"/>
    <path id="path16852" fill="#5f5" d="m307 182h3v7h-3z"/>
    <path id="path16854" fill="#00d700" d="m300 180v10h1v-9h9v-1z"/>
  </g>
  <g id="g16856" transform="translate(288,12)">
    <path id="path16858" fill="#007f00" d="m300 180h11v11h-11z"/>
    <path id="path16860" fill="#004a00" d="m310 180v10h-10v1h11v-11z"/>
    <path id="path16862" fill="#5f5" d="m307 182h3v7h-3z"/>
    <path id="path16864" fill="#00d700" d="m300 180v10h1v-9h9v-1z"/>
  </g>
  <g id="g16866" transform="translate(300,36)">
    <path id="path16868" fill="#007f00" d="m300 180h11v11h-11z"/>
    <path id="path16870" fill="#004a00" d="m310 180v10h-10v1h11v-11z"/>
    <path id="path16872" fill="#5f5" d="m307 182h3v7h-3z"/>
    <path id="path16874" fill="#00d700" d="m300 180v10h1v-9h9v-1z"/>
  </g>
  <g id="g16876" transform="translate(312,12)">
    <path id="path16878" fill="#007f00" d="m300 180h11v11h-11z"/>
    <path id="path16880" fill="#004a00" d="m310 180v10h-10v1h11v-11z"/>
    <path id="path16882" fill="#5f5" d="m307 182h3v7h-3z"/>
    <path id="path16884" fill="#00d700" d="m300 180v10h1v-9h9v-1z"/>
  </g>
  <g id="g16886" transform="translate(324,48)">
    <path id="path16888" fill="#007f00" d="m300 180h11v11h-11z"/>
    <path id="path16890" fill="#004a00" d="m310 180v10h-10v1h11v-11z"/>
    <path id="path16892" fill="#5f5" d="m307 182h3v7h-3z"/>
    <path id="path16894" fill="#00d700" d="m300 180v10h1v-9h9v-1z"/>
  </g>
  <g id="g16896" transform="translate(336,-96)">
    <path id="path16898" fill="#007f00" d="m300 180h11v11h-11z"/>
    <path id="path16900" fill="#004a00" d="m310 180v10h-10v1h11v-11z"/>
    <path id="path16902" fill="#5f5" d="m307 182h3v7h-3z"/>
    <path id="path16904" fill="#00d700" d="m300 180v10h1v-9h9v-1z"/>
  </g>
  <g id="g16906" transform="translate(348,-48)">
    <path id="path16908" fill="#007f00" d="m300 180h11v11h-11z"/>
    <path id="path16910" fill="#004a00" d="m310 180v10h-10v1h11v-11z"/>
    <path id="path16912" fill="#5f5" d="m307 182h3v7h-3z"/>
    <path id="path16914" fill="#00d700" d="m300 180v10h1v-9h9v-1z"/>
  </g>
  <g id="g16916" transform="translate(360,-108)">
    <path id="path16918" fill="#007f00" d="m300 180h11v11h-11z"/>
    <path id="path16920" fill="#004a00" d="m310 180v10h-10v1h11v-11z"/>
    <path id="path16922" fill="#5f5" d="m307 182h3v7h-3z"/>
    <path id="path16924" fill="#00d700" d="m300 180v10h1v-9h9v-1z"/>
  </g>
  <g id="g16926" transform="translate(372,-48)">
    <path id="path16928" fill="#007f00" d="m300 180h11v11h-11z"/>
    <path id="path16930" fill="#004a00" d="m310 180v10h-10v1h11v-11z"/>
    <path id="path16932" fill="#5f5" d="m307 182h3v7h-3z"/>
    <path id="path16934" fill="#00d700" d="m300 180v10h1v-9h9v-1z"/>
  </g>
  <g id="g16936" transform="translate(336,12)">
    <path id="path16938" fill="#007f00" d="m300 180h11v11h-11z"/>
    <path id="path16940" fill="#004a00" d="m310 180v10h-10v1h11v-11z"/>
    <path id="path16942" fill="#5f5" d="m307 182h3v7h-3z"/>
    <path id="path16944" fill="#00d700" d="m300 180v10h1v-9h9v-1z"/>
  </g>
  <g id="g16946" transform="translate(348,48)">
    <path id="path16948" fill="#007f00" d="m300 180h11v11h-11z"/>
    <path id="path16950" fill="#004a00" d="m310 180v10h-10v1h11v-11z"/>
    <path id="path16952" fill="#5f5" d="m307 182h3v7h-3z"/>
    <path id="path16954" fill="#00d700" d="m300 180v10h1v-9h9v-1z"/>
  </g>
  <g id="g16956" transform="translate(360,-12)">
    <path id="path16958" fill="#007f00" d="m300 180h11v11h-11z"/>
    <path id="path16960" fill="#004a00" d="m310 180v10h-10v1h11v-11z"/>
    <path id="path16962" fill="#5f5" d="m307 182h3v7h-3z"/>
    <path id="path16964" fill="#00d700" d="m300 180v10h1v-9h9v-1z"/>
  </g>
  <g id="g16966" transform="translate(372,48)">
    <path id="path16968" fill="#007f00" d="m300 180h11v11h-11z"/>
    <path id="path16970" fill="#004a00" d="m310 180v10h-10v1h11v-11z"/>
    <path id="path16972" fill="#5f5" d="m307 182h3v7h-3z"/>
    <path id="path16974" fill="#00d700" d="m300 180v10h1v-9h9v-1z"/>
  </g>
  <metadata>
    <rdf:RDF>
      <cc:Work>
        <dc:format>image/svg+xml</dc:format>
        <dc:type rdf:resource="http://purl.org/dc/dcmitype/StillImage"/>
        <cc:license rdf:resource="http://creativecommons.org/licenses/publicdomain/"/>
        <dc:publisher>
          <cc:Agent rdf:about="http://openclipart.org/">
            <dc:title>Openclipart</dc:title>
          </cc:Agent>
        </dc:publisher>
        <dc:title>digital music sheet</dc:title>
        <dc:date>2013-09-29T04:52:51</dc:date>
        <dc:description>I was trying to interpret Johann Sebastian Bach's toccata on a digital audio workstation (used LMMS by the way). &#xD;\nGot confused between matching the notes in the software with the sheet music, so made this drawing, hoping it could help me a bit. &#xD;\nMay others find it helpful for some use.</dc:description>
        <dc:source>http://openclipart.org/detail/183952/digital-music-sheet-by-lazur-urh-183952</dc:source>
        <dc:creator>
          <cc:Agent>
            <dc:title>Lazur URH</dc:title>
          </cc:Agent>
        </dc:creator>
        <dc:subject>
          <rdf:Bag>
            <rdf:li>2013</rdf:li>
            <rdf:li>Lazur</rdf:li>
            <rdf:li>URH</rdf:li>
            <rdf:li>digital</rdf:li>
            <rdf:li>electronic</rdf:li>
            <rdf:li>keys</rdf:li>
            <rdf:li>linux</rdf:li>
            <rdf:li>lmms</rdf:li>
            <rdf:li>multimedia</rdf:li>
            <rdf:li>music</rdf:li>
            <rdf:li>piano</rdf:li>
            <rdf:li>sheet</rdf:li>
            <rdf:li>studio</rdf:li>
          </rdf:Bag>
        </dc:subject>
      </cc:Work>
      <cc:License rdf:about="http://creativecommons.org/licenses/publicdomain/">
        <cc:permits rdf:resource="http://creativecommons.org/ns#Reproduction"/>
        <cc:permits rdf:resource="http://creativecommons.org/ns#Distribution"/>
        <cc:permits rdf:resource="http://creativecommons.org/ns#DerivativeWorks"/>
      </cc:License>
    </rdf:RDF>
  </metadata>
</svg>
